<svg width="586" height="147" viewBox="0 0 586 147" fill="none" xmlns="http://www.w3.org/2000/svg">
<path id="arrow" d="M5.78464 23.0037L7.75167 23.3654L7.75499 23.3473L7.75798 23.3292L5.78464 23.0037ZM5.27477 25.7766L3.30775 25.4149L5.27477 25.7766ZM3.73166 34.6361L1.75873 34.3081L3.73166 34.6361ZM2.63589 41.5779L0.659304 41.2728L2.63589 41.5779ZM2.01173 54.1982L0.0117955 54.1825L2.01173 54.1982ZM2.66453 59.7411L0.770043 60.3821L2.66453 59.7411ZM4.21725 66.6615L6.21604 66.7311L4.21725 66.6615ZM4.11498 69.5999L2.11619 69.5303L4.11498 69.5999ZM6.55264 80.5086L8.39283 79.7252L6.55264 80.5086ZM7.69091 83.1825L5.85071 83.9658L7.69091 83.1825ZM9.72577 86.8248L8.09311 87.98L9.72577 86.8248ZM11.4156 89.2131L13.0483 88.058L11.4156 89.2131ZM13.5568 92.7487L11.7746 93.6563L13.5568 92.7487ZM14.1998 94.0115L15.9821 93.1039L14.1998 94.0115ZM16.8395 98.8302L15.1367 99.8792L16.8395 98.8302ZM17.5839 100.039L19.2867 98.9895L17.5839 100.039ZM18.3283 101.247L16.6255 102.296L18.3283 101.247ZM20.2282 104.956L18.3845 105.731L20.2282 104.956ZM21.3798 107.695L23.2234 106.92L21.3798 107.695ZM23.815 111.007L22.5334 112.542L23.815 111.007ZM24.9314 111.939L26.213 110.403L24.9314 111.939ZM26.0479 112.871L24.7663 114.406L26.0479 112.871ZM29.0505 115.753L27.568 117.096L29.0505 115.753ZM30.0206 116.824L31.5031 115.482L30.0206 116.824ZM30.9907 117.896L32.4732 116.553L30.9907 117.896ZM34.1472 120.547L35.2134 118.855L34.1472 120.547ZM35.3707 121.318L34.3045 123.01L35.3707 121.318ZM36.5941 122.088L37.6603 120.396L36.5941 122.088ZM40.1055 124.287L39.0487 125.985L40.1055 124.287ZM41.3221 125.045L42.3789 123.347L41.3221 125.045ZM42.5388 125.802L41.4819 127.5L42.5388 125.802ZM46.0706 127.932L47.0797 126.206L46.0706 127.932ZM47.3083 128.656L46.2992 130.382L47.3083 128.656ZM48.546 129.379L47.5369 131.106L48.546 129.379ZM52.0974 131.531L53.1605 129.837L52.0974 131.531ZM53.3277 132.303L52.2646 133.997L53.3277 132.303ZM54.5579 133.075L55.621 131.381L54.5579 133.075ZM58.3836 134.609L57.9805 136.567L58.3836 134.609ZM61.2401 135.196L60.837 137.155L61.2401 135.196ZM65.2252 136.363L64.5064 138.229L65.2252 136.363ZM66.5662 136.879L67.285 135.013L66.5662 136.879ZM67.9073 137.396L67.1885 139.262L67.9073 137.396ZM71.8359 138.683L72.3612 136.753L71.8359 138.683ZM73.2249 139.061L72.6997 140.991L73.2249 139.061ZM74.614 139.439L75.1392 137.509L74.614 139.439ZM78.6319 140.49L78.1443 142.43L78.6319 140.49ZM80.035 140.843L80.5226 138.904L80.035 140.843ZM81.4381 141.196L80.9505 143.136L81.4381 141.196ZM88.4473 141.623L88.4796 143.622L88.4473 141.623ZM92.5388 142.151L93.0794 140.226L92.5388 142.151ZM95.3232 142.933L94.7827 144.859L95.3232 142.933ZM99.3976 143.579L99.4783 141.581L99.3976 143.579ZM100.837 143.637L100.756 145.636L100.837 143.637ZM102.276 143.696L102.356 141.697L102.276 143.696ZM106.432 143.698L106.51 145.696L106.432 143.698ZM107.881 143.641L107.803 141.642L107.881 143.641ZM109.33 143.584L109.408 145.583L109.33 143.584ZM113.458 143.641L113.322 145.636L113.458 143.641ZM114.877 143.737L115.012 141.742L114.877 143.737ZM116.296 143.833L116.161 145.829L116.296 143.833ZM120.438 143.693L120.174 141.71L120.438 143.693ZM123.355 143.305L123.092 141.323L123.355 143.305ZM127.532 143.411L127.896 141.444L127.532 143.411ZM130.42 143.945L130.056 145.912L130.42 143.945ZM134.552 143.969L134.897 145.939L134.552 143.969ZM135.979 143.719L135.634 141.749L135.979 143.719ZM141.517 143.034L141.444 141.035L141.517 143.034ZM144.374 142.93L144.447 144.928L144.374 142.93ZM148.498 142.701L148.647 144.696L148.498 142.701ZM149.936 142.595L149.788 140.6L149.936 142.595ZM151.374 142.488L151.522 144.482L151.374 142.488ZM155.455 141.923L155.055 139.963L155.455 141.923ZM156.854 141.637L157.255 143.596L156.854 141.637ZM158.253 141.351L158.654 143.31L158.253 141.351ZM162.339 140.75L162.521 142.742L162.339 140.75ZM165.221 140.487L165.403 142.479L165.221 140.487ZM169.389 140.526L169.605 138.537L169.389 140.526ZM172.3 140.842L172.084 142.83L172.3 140.842ZM176.461 140.988L176.539 142.987L176.461 140.988ZM177.897 140.932L177.976 142.93L177.897 140.932ZM179.334 140.876L179.255 138.877L179.334 140.876ZM183.415 140.189L182.84 138.274L183.415 140.189ZM186.215 139.348L185.64 137.432L186.215 139.348ZM190.277 138.488L190.03 136.503L190.277 138.488ZM193.122 138.134L193.369 140.119L193.122 138.134ZM197.128 137.213L197.773 139.106L197.128 137.213ZM198.489 136.75L199.134 138.643L198.489 136.75ZM199.85 136.286L199.205 134.393L199.85 136.286ZM206.832 135.397L206.92 137.395L206.832 135.397ZM210.976 134.923L210.609 132.957L210.976 134.923ZM212.395 134.659L212.761 136.625L212.395 134.659ZM213.814 134.394L214.18 136.36L213.814 134.394ZM217.784 133.224L217.027 131.373L217.784 133.224ZM219.125 132.676L219.882 134.527L219.125 132.676ZM220.465 132.128L219.708 130.277L220.465 132.128ZM224.446 130.988L224.782 132.96L224.446 130.988ZM225.872 130.745L225.535 128.773L225.872 130.745ZM227.298 130.501L226.962 128.53L227.298 130.501ZM231.154 129.05L232.196 130.757L231.154 129.05ZM232.407 128.285L231.365 126.578L232.407 128.285ZM233.66 127.52L234.702 129.227L233.66 127.52ZM237.532 126.049L237.18 124.081L237.532 126.049ZM238.969 125.792L238.617 123.823L238.969 125.792ZM240.407 125.535L240.759 127.504L240.407 125.535ZM244.266 124.102L245.287 125.821L244.266 124.102ZM245.511 123.362L244.489 121.643L245.511 123.362ZM246.755 122.623L247.776 124.343L246.755 122.623ZM253.08 119.604L253.872 121.44L253.08 119.604ZM256.686 117.626L257.809 119.281L256.686 117.626ZM257.874 116.821L256.751 115.165L257.874 116.821ZM259.061 116.015L260.184 117.67L259.061 116.015ZM262.686 114.027L261.892 112.191L262.686 114.027ZM265.349 112.874L266.143 114.709L265.349 112.874ZM268.622 110.408L267.083 109.131L268.622 110.408ZM269.566 109.271L268.027 107.994L269.566 109.271ZM270.51 108.133L272.049 109.411L270.51 108.133ZM273.762 105.534L272.856 103.751L273.762 105.534ZM276.395 104.196L277.301 105.979L276.395 104.196ZM279.509 101.526L281.136 102.688L279.509 101.526ZM281.204 99.1526L282.832 100.315L281.204 99.1526ZM283.842 95.939L285.298 97.3096L283.842 95.939ZM284.827 94.8922L286.283 96.2629L284.827 94.8922ZM285.812 93.8454L287.269 95.2161L285.812 93.8454ZM288.211 90.5146L286.45 89.5672L288.211 90.5146ZM289.575 87.9791L291.336 88.9265L289.575 87.9791ZM291.762 84.4649L293.39 85.6266L291.762 84.4649ZM292.6 83.2906L294.228 84.4523L292.6 83.2906ZM293.438 82.1163L291.81 80.9546L293.438 82.1163ZM295.188 78.4042L297.119 78.9236L295.188 78.4042ZM295.943 75.5936L294.012 75.0742L295.943 75.5936ZM297.356 71.7058L299.169 72.5506L297.356 71.7058ZM297.961 70.4095L296.148 69.5647L297.961 70.4095ZM298.565 69.1132L296.752 68.2684L298.565 69.1132ZM300.171 65.3326L298.304 64.6146L300.171 65.3326ZM301.194 62.6709L299.328 61.9529L301.194 62.6709ZM302.666 58.772L304.541 59.4666L302.666 58.772ZM303.176 57.3935L301.301 56.6988L303.176 57.3935ZM303.687 56.0149L305.563 56.7096L303.687 56.0149ZM304.431 51.9276L302.431 51.9189L304.431 51.9276ZM304.437 50.4657L306.437 50.4744L304.437 50.4657ZM304.444 49.0039L306.444 49.0126L304.444 49.0039ZM303.738 44.8936L301.854 45.565L303.738 44.8936ZM302.744 42.1046L304.628 41.4332L302.744 42.1046ZM301.928 38.0243L303.926 37.9274L301.928 38.0243ZM301.788 35.1424L299.79 35.2393L301.788 35.1424ZM301.114 31.065L299.191 31.6153L301.114 31.065ZM300.317 28.28L302.24 27.7297L300.317 28.28ZM298.499 24.5944L300.107 23.4048L298.499 24.5944ZM297.634 23.4258L296.027 24.6154L297.634 23.4258ZM296.77 22.2571L295.162 23.4467L296.77 22.2571ZM294.56 18.72L292.786 19.6432V19.6432L294.56 18.72ZM293.889 17.4307L292.115 18.3539L293.889 17.4307ZM293.218 16.1414L294.992 15.2183L293.218 16.1414ZM290.556 13.0679L289.389 14.6926L290.556 13.0679ZM289.376 12.2213L290.543 10.5966L289.376 12.2213ZM288.197 11.3747L287.031 12.9994L288.197 11.3747ZM284.965 8.70193L283.59 10.1535L284.965 8.70193ZM283.899 7.6912L285.275 6.23963L283.899 7.6912ZM282.833 6.68047L281.457 8.13203L282.833 6.68047ZM279.167 5.09669L279.288 3.10036L279.167 5.09669ZM277.686 5.00683L277.565 7.00316L277.686 5.00683ZM276.205 4.91697L276.326 2.92064L276.205 4.91697ZM272.112 4.08006L272.79 2.19862L272.112 4.08006ZM270.748 3.58834L270.069 5.46978L270.748 3.58834ZM269.384 3.09662L270.062 1.21517L269.384 3.09662ZM265.347 2.52597L265.215 0.530317L265.347 2.52597ZM263.906 2.62115L264.038 4.6168L263.906 2.62115ZM262.465 2.71632L262.596 4.71197L262.465 2.71632ZM258.327 2.56435L258.604 0.583666L258.327 2.56435ZM255.459 2.1628L255.181 4.14349L255.459 2.1628ZM249.903 2.25325L249.687 0.264944L249.903 2.25325ZM244.366 2.98031L244.031 1.00863L244.366 2.98031ZM242.946 3.22192L243.281 5.1936L242.946 3.22192ZM241.526 3.46354L241.19 1.49187L241.526 3.46354ZM237.524 4.49131L236.868 2.60203L237.524 4.49131ZM230.97 6.97421L230.138 5.15549V5.15549L230.97 6.97421ZM229.667 7.57018L230.499 9.3889L229.667 7.57018ZM228.364 8.16615L227.532 6.34744L228.364 8.16615ZM224.691 10.0073L225.651 11.7621L224.691 10.0073ZM223.441 10.6908L224.401 12.4455L223.441 10.6908ZM222.192 11.3743L221.232 9.61953L222.192 11.3743ZM218.708 13.5139L217.577 11.8647L218.708 13.5139ZM217.537 14.3172L218.668 15.9665L217.537 14.3172ZM216.366 15.1206L217.497 16.7698L216.366 15.1206ZM213.032 17.4771L214.209 19.0939L213.032 17.4771ZM210.74 19.1454L209.563 17.5285L210.74 19.1454ZM207.29 21.4132L208.309 23.1339V23.1339L207.29 21.4132ZM204.786 22.8967L205.805 24.6174V24.6174L204.786 22.8967ZM201.834 25.7155L200.162 24.6175L201.834 25.7155ZM201.034 26.9326L202.706 28.0306L201.034 26.9326ZM200.235 28.1496L198.563 27.0516L200.235 28.1496ZM197.489 31.2703L196.186 29.7525L197.489 31.2703ZM196.38 32.2218L197.683 33.7395L196.38 32.2218ZM195.271 33.1733L196.574 34.691L195.271 33.1733ZM192.926 36.4934L194.793 37.2107L192.926 36.4934ZM191.885 39.2048L190.018 38.4875L191.885 39.2048ZM190.604 43.1399L188.672 42.6228L190.604 43.1399ZM189.866 45.8976L191.798 46.4148L189.866 45.8976ZM188.63 49.8589L190.514 50.5301L188.63 49.8589ZM188.141 51.2329L190.025 51.9041L188.141 51.2329ZM187.651 52.6068L185.767 51.9356L187.651 52.6068ZM186.932 56.6786L184.932 56.6644L186.932 56.6786ZM186.922 58.1342L188.922 58.1484L186.922 58.1342ZM186.911 59.5899L184.911 59.5757L186.911 59.5899ZM187.7 63.6417L185.849 64.4009L187.7 63.6417ZM188.816 66.3618L190.666 65.6026L188.816 66.3618ZM190.204 70.2439L188.29 70.8256L190.204 70.2439ZM191.017 72.9192L192.931 72.3375L191.017 72.9192ZM192.436 76.6928L194.259 75.8707V75.8707L192.436 76.6928ZM193.015 77.9774L191.192 78.7994V78.7994L193.015 77.9774ZM193.594 79.262L191.771 80.084L193.594 79.262ZM195.685 82.695L197.251 81.4521L195.685 82.695ZM197.431 84.8971L195.864 86.14L197.431 84.8971ZM199.9 88.1395L201.515 86.959L199.9 88.1395ZM201.585 90.4438L199.971 91.6243L201.585 90.4438ZM204.379 93.409L203.105 94.9506L204.379 93.409ZM206.577 95.2257L207.851 93.6841L206.577 95.2257ZM209.861 97.6996L210.992 96.0499L209.861 97.6996ZM211.044 98.5104L209.914 100.16L211.044 98.5104ZM212.228 99.3212L213.358 97.6714L212.228 99.3212ZM215.573 101.778L216.808 100.205L215.573 101.778ZM216.715 102.675L215.48 104.248L216.715 102.675ZM217.857 103.571L216.622 105.144L217.857 103.571ZM221.573 105.294L221.982 103.337L221.573 105.294ZM223.013 105.595L222.603 107.553L223.013 105.595ZM224.453 105.897L224.862 103.939L224.453 105.897ZM228.39 107.189L229.227 105.372L228.39 107.189ZM230.982 108.382L230.146 110.199L230.982 108.382ZM234.67 110.31L233.658 112.035L234.67 110.31ZM235.936 111.053L236.948 109.328L235.936 111.053ZM237.202 111.796L236.19 113.521L237.202 111.796ZM241.101 113.143L241.367 111.161L241.101 113.143ZM242.544 113.337L242.278 115.319L242.544 113.337ZM243.988 113.531L244.254 111.549L243.988 113.531ZM248.095 114.224L247.695 116.184L248.095 114.224ZM249.507 114.512L249.906 112.552L249.507 114.512ZM250.918 114.8L251.318 112.84L250.918 114.8ZM254.908 115.907L255.575 114.022L254.908 115.907ZM256.269 116.389L255.602 118.274L256.269 116.389ZM261.642 117.779L261.432 119.768L261.642 117.779ZM268.564 118.805L268.075 120.744L268.564 118.805ZM269.966 119.158L270.456 117.219L269.966 119.158ZM271.369 119.512L270.88 121.451L271.369 119.512ZM275.506 119.879L275.641 121.874L275.506 119.879ZM276.978 119.779L276.843 117.784L276.978 119.779ZM278.45 119.68L278.584 121.676L278.45 119.68ZM282.633 119.59L282.684 117.591L282.633 119.59ZM284.068 119.627L284.017 121.626L284.068 119.627ZM285.503 119.663L285.554 117.664L285.503 119.663ZM289.625 119.817L289.723 117.819L289.625 119.817ZM291.055 119.887L290.957 121.884L291.055 119.887ZM292.485 119.957L292.387 121.955L292.485 119.957ZM296.596 120.246L296.779 118.255L296.596 120.246ZM299.45 120.508L299.268 122.5L299.45 120.508ZM303.564 120.848L303.71 118.853L303.564 120.848ZM304.995 120.952L304.849 122.947L304.995 120.952ZM306.426 121.057L306.572 119.062L306.426 121.057ZM310.549 121.225L310.532 123.225L310.549 121.225ZM311.983 121.238L312 119.238L311.983 121.238ZM313.417 121.25L313.4 123.25L313.417 121.25ZM317.552 121.649L317.19 123.616L317.552 121.649ZM320.431 122.178L320.793 120.212L320.431 122.178ZM324.57 122.46L324.474 120.463L324.57 122.46ZM326.008 122.391L326.104 124.389L326.008 122.391ZM331.572 121.951L331.31 119.969L331.572 121.951ZM333.003 121.763L333.264 123.745L333.003 121.763ZM334.433 121.574L334.172 119.591L334.433 121.574ZM338.564 121.309L338.557 123.309L338.564 121.309ZM341.442 121.318L341.449 119.318L341.442 121.318ZM345.538 120.672L344.924 118.768L345.538 120.672ZM346.945 120.218L347.559 122.121L346.945 120.218ZM348.351 119.764L347.737 117.861L348.351 119.764ZM352.468 119.361L352.231 121.347L352.468 119.361ZM353.922 119.534L354.16 117.549L353.922 119.534ZM355.377 119.708L355.139 121.694L355.377 119.708ZM359.534 119.832L359.656 121.829L359.534 119.832ZM362.404 119.658L362.283 117.662L362.404 119.658ZM366.517 119.233L366.227 117.254L366.517 119.233ZM367.939 119.025L368.229 121.004L367.939 119.025ZM369.362 118.816L369.651 120.795L369.362 118.816ZM373.43 118.026L373.903 119.969L373.43 118.026ZM376.24 117.343L375.768 115.399L376.24 117.343ZM380.321 116.682L380.158 114.689L380.321 116.682ZM383.185 116.447L383.021 114.454L383.185 116.447ZM387.251 115.723L386.717 113.795L387.251 115.723ZM388.645 115.337L389.178 117.265L388.645 115.337ZM390.038 114.952L389.505 113.024L390.038 114.952ZM394.124 114.349L394.17 116.348L394.124 114.349ZM395.569 114.315L395.616 116.315L395.569 114.315ZM397.014 114.281L396.968 112.282L397.014 114.281ZM401.147 113.999L400.921 112.012L401.147 113.999ZM402.574 113.836L402.801 115.823L402.574 113.836ZM404.001 113.673L403.774 111.686L404.001 113.673ZM408.111 113.218L407.898 111.23L408.111 113.218ZM410.968 112.913L411.181 114.901L410.968 112.913ZM415.025 112.133L415.563 114.059L415.025 112.133ZM416.414 111.745L415.876 109.819L416.414 111.745ZM417.804 111.356L418.343 113.282L417.804 111.356ZM421.842 110.432L422.194 112.401L421.842 110.432ZM424.674 109.926L424.321 107.957L424.674 109.926ZM428.766 109.299L429.018 111.283L428.766 109.299ZM431.621 108.936L431.369 106.952L431.621 108.936ZM435.696 108.271L436.087 110.232L435.696 108.271ZM438.502 107.71L438.111 105.749L438.502 107.71ZM442.458 106.441L441.641 104.615L442.458 106.441ZM445.148 105.237L445.965 107.062L445.148 105.237ZM449.116 104.012L449.464 105.982L449.116 104.012ZM450.528 103.763L450.181 101.793L450.528 103.763ZM451.94 103.514L452.288 105.483L451.94 103.514ZM456.074 103.088L456.01 101.089L456.074 103.088ZM457.534 103.041L457.598 105.04L457.534 103.041ZM458.995 102.995L458.931 100.996L458.995 102.995ZM463.12 102.508L463.525 104.467L463.12 102.508ZM464.526 102.217L464.932 104.176L464.526 102.217ZM465.932 101.926L465.527 99.9674L465.932 101.926ZM469.966 101.067L469.539 99.1134L469.966 101.067ZM472.76 100.456L473.187 102.41L472.76 100.456ZM476.785 99.5114L477.271 101.451L476.785 99.5114ZM478.184 99.1603L477.698 97.2204L478.184 99.1603ZM479.584 98.8091L480.071 100.749L479.584 98.8091ZM483.569 97.6553L484.194 99.5551L483.569 97.6553ZM484.938 97.2047L484.313 95.3049L484.938 97.2047ZM486.308 96.754L485.683 94.8543L486.308 96.754ZM490.095 95.0229L489.071 93.3049L490.095 95.0229ZM491.357 94.2706L492.381 95.9886L491.357 94.2706ZM492.62 93.5182L491.596 91.8002L492.62 93.5182ZM496.377 91.7409L497.051 93.6239L496.377 91.7409ZM497.725 91.2582L497.051 89.3752L497.725 91.2582ZM499.074 90.7754L499.748 92.6584L499.074 90.7754ZM502.895 89.2372L503.714 91.0621L502.895 89.2372ZM504.203 88.6509L503.384 86.826L504.203 88.6509ZM505.51 88.0647L506.328 89.8896L505.51 88.0647ZM509.38 86.6342L509.946 88.5523L509.38 86.6342ZM510.762 86.2263L511.328 88.1444L510.762 86.2263ZM512.144 85.8184L511.577 83.9002L512.144 85.8184ZM515.916 84.1661L514.89 82.449L515.916 84.1661ZM518.395 82.6854L519.42 84.4024L518.395 82.6854ZM522.324 81.3391L522.583 83.3221L522.324 81.3391ZM523.814 81.1438L523.555 79.1607L523.814 81.1438ZM525.305 80.9485L525.565 82.9315L525.305 80.9485ZM529.278 79.691L530.22 81.4549L529.278 79.691ZM530.547 79.0125L529.605 77.2485L530.547 79.0125ZM531.817 78.3339L530.874 76.57L531.817 78.3339ZM535.486 76.4123L536.399 78.1916L535.486 76.4123ZM536.766 75.7554L535.852 73.9761L536.766 75.7554ZM538.045 75.0986L538.959 76.8779L538.045 75.0986ZM541.515 72.8167L542.784 74.3624L541.515 72.8167ZM543.777 70.9589L542.508 69.4133L543.777 70.9589ZM547.226 68.6512L548.167 70.4159L547.226 68.6512ZM549.757 67.3016L550.698 69.0663L549.757 67.3016ZM553.409 65.3751L552.484 63.6019L553.409 65.3751ZM555.955 64.0473L556.88 65.8205L555.955 64.0473ZM559.718 62.2951L558.955 60.4462L559.718 62.2951ZM561.06 61.7413L561.823 63.5902L561.06 61.7413ZM562.403 61.1876L561.64 59.3388L562.403 61.1876ZM565.981 59.1248L567.2 60.7106L565.981 59.1248ZM567.126 58.2451L565.907 56.6593L567.126 58.2451ZM568.271 57.3654L569.489 58.9511L568.271 57.3654ZM571.782 55.1664L570.887 53.378L571.782 55.1664ZM574.372 53.8697L575.267 55.6582L574.372 53.8697ZM577.779 51.5364L576.434 50.0556L577.779 51.5364ZM578.851 50.5633L580.195 52.0442L578.851 50.5633ZM579.923 49.5902L578.579 48.1093L579.923 49.5902ZM582.185 47.652L580.987 46.0502L582.185 47.652ZM582.685 47.2782L583.882 48.88L583.886 48.8769L582.685 47.2782ZM583.822 46.4234L582.683 44.7794L582.651 44.8015L582.62 44.8247L583.822 46.4234ZM585.872 46.7236C586.069 45.6367 585.348 44.5958 584.261 44.3986L566.55 41.1849C565.464 40.9877 564.423 41.7088 564.226 42.7957C564.028 43.8825 564.75 44.9234 565.836 45.1206L581.579 47.9773L578.723 63.7202C578.525 64.807 579.247 65.8479 580.333 66.0451C581.42 66.2423 582.461 65.5212 582.658 64.4343L585.872 46.7236ZM5.80092 22.905L3.82758 22.5795L3.81131 22.6782L5.78464 23.0037L7.75798 23.3292L7.77425 23.2305L5.80092 22.905ZM5.78464 23.0037L3.81762 22.642L3.30775 25.4149L5.27477 25.7766L7.2418 26.1383L7.75167 23.3654L5.78464 23.0037ZM5.27477 25.7766L3.30775 25.4149C2.8181 28.0778 2.45813 30.1007 2.22945 31.4764L4.20237 31.8043L6.1753 32.1323C6.3982 30.7914 6.75316 28.7957 7.2418 26.1383L5.27477 25.7766ZM4.20237 31.8043L2.22945 31.4764L1.99409 32.8922L3.96702 33.2202L5.93994 33.5482L6.1753 32.1323L4.20237 31.8043ZM3.96702 33.2202L1.99409 32.8922L1.75873 34.3081L3.73166 34.6361L5.70459 34.964L5.93994 33.5482L3.96702 33.2202ZM3.73166 34.6361L1.75873 34.3081C1.53167 35.6741 1.31196 37.0449 1.09959 38.4206L3.07618 38.7257L5.05277 39.0309C5.2628 37.6703 5.48007 36.3147 5.70459 34.964L3.73166 34.6361ZM3.07618 38.7257L1.09959 38.4206L0.879449 39.8467L2.85604 40.1518L4.83262 40.457L5.05277 39.0309L3.07618 38.7257ZM2.85604 40.1518L0.879449 39.8467L0.659304 41.2728L2.63589 41.5779L4.61248 41.8831L4.83262 40.457L2.85604 40.1518ZM2.63589 41.5779L0.659304 41.2728C0.436563 42.7157 0.29618 44.167 0.23818 45.6264L2.2366 45.7058L4.23502 45.7853C4.28702 44.477 4.41283 43.1764 4.61248 41.8831L2.63589 41.5779ZM2.2366 45.7058L0.23818 45.6264L0.180852 47.0689L2.17927 47.1483L4.1777 47.2277L4.23502 45.7853L2.2366 45.7058ZM2.17927 47.1483L0.180852 47.0689L0.123525 48.5113L2.12195 48.5907L4.12037 48.6702L4.1777 47.2277L2.17927 47.1483ZM2.12195 48.5907L0.123525 48.5113C0.0676805 49.9164 0.0342277 51.3241 0.0231595 52.7345L2.0231 52.7502L4.02304 52.7659C4.03377 51.3979 4.06622 50.0327 4.12037 48.6702L2.12195 48.5907ZM2.0231 52.7502L0.0231595 52.7345L0.0117955 54.1825L2.01173 54.1982L4.01167 54.2139L4.02304 52.7659L2.0231 52.7502ZM2.01173 54.1982L0.0117955 54.1825L0.00043172 55.6305L2.00037 55.6462L4.00031 55.6619L4.01167 54.2139L2.01173 54.1982ZM2.00037 55.6462L0.00043172 55.6305C-0.0122558 57.2472 0.24618 58.8339 0.770043 60.3821L2.66453 59.7411L4.55901 59.1C4.17553 57.9667 3.99119 56.8236 4.00031 55.6619L2.00037 55.6462ZM2.66453 59.7411L0.770043 60.3821L1.24294 61.7797L3.13742 61.1386L5.0319 60.4976L4.55901 59.1L2.66453 59.7411ZM3.13742 61.1386L1.24294 61.7797L1.71583 63.1772L3.61032 62.5362L5.5048 61.8951L5.0319 60.4976L3.13742 61.1386ZM3.61032 62.5362L1.71583 63.1772C2.09243 64.2902 2.25908 65.4246 2.21846 66.5919L4.21725 66.6615L6.21604 66.7311C6.27351 65.0795 6.03555 63.4637 5.5048 61.8951L3.61032 62.5362ZM4.21725 66.6615L2.21846 66.5919L2.16733 68.0611L4.16611 68.1307L6.1649 68.2003L6.21604 66.7311L4.21725 66.6615ZM4.16611 68.1307L2.16733 68.0611L2.11619 69.5303L4.11498 69.5999L6.11377 69.6695L6.1649 68.2003L4.16611 68.1307ZM4.11498 69.5999L2.11619 69.5303C2.06081 71.1217 2.22113 72.6865 2.59865 74.2192L4.54061 73.7409L6.48258 73.2626C6.19449 72.093 6.07105 70.8971 6.11377 69.6695L4.11498 69.5999ZM4.54061 73.7409L2.59865 74.2192L2.94556 75.6277L4.88752 75.1494L6.82948 74.6711L6.48258 73.2626L4.54061 73.7409ZM4.88752 75.1494L2.94556 75.6277L3.29246 77.0362L5.23443 76.5579L7.17639 76.0796L6.82948 74.6711L4.88752 75.1494ZM5.23443 76.5579L3.29246 77.0362C3.65099 78.4918 4.12446 79.9107 4.71244 81.292L6.55264 80.5086L8.39283 79.7252C7.88882 78.5412 7.48347 77.3263 7.17639 76.0796L5.23443 76.5579ZM6.55264 80.5086L4.71244 81.292L5.28158 82.6289L7.12177 81.8455L8.96197 81.0621L8.39283 79.7252L6.55264 80.5086ZM7.12177 81.8455L5.28158 82.6289L5.85071 83.9658L7.69091 83.1825L9.53111 82.3991L8.96197 81.0621L7.12177 81.8455ZM7.69091 83.1825L5.85071 83.9658C6.45284 85.3803 7.20088 86.7189 8.09311 87.98L9.72577 86.8248L11.3584 85.6696C10.6295 84.6394 10.021 83.5498 9.53111 82.3991L7.69091 83.1825ZM9.72577 86.8248L8.09311 87.98L8.93803 89.1741L10.5707 88.019L12.2034 86.8638L11.3584 85.6696L9.72577 86.8248ZM10.5707 88.019L8.93803 89.1741L9.78295 90.3683L11.4156 89.2131L13.0483 88.058L12.2034 86.8638L10.5707 88.019ZM11.4156 89.2131L9.78295 90.3683C10.5395 91.4377 11.2029 92.5336 11.7746 93.6563L13.5568 92.7487L15.339 91.8411C14.6769 90.541 13.9128 89.2799 13.0483 88.058L11.4156 89.2131ZM13.5568 92.7487L11.7746 93.6563L12.4176 94.919L14.1998 94.0115L15.9821 93.1039L15.339 91.8411L13.5568 92.7487ZM14.1998 94.0115L12.4176 94.919L13.0607 96.1818L14.8429 95.2742L16.6251 94.3667L15.9821 93.1039L14.1998 94.0115ZM14.8429 95.2742L13.0607 96.1818C13.7021 97.4415 14.3942 98.674 15.1367 99.8792L16.8395 98.8302L18.5423 97.7811C17.8564 96.6679 17.2174 95.5298 16.6251 94.3667L14.8429 95.2742ZM16.8395 98.8302L15.1367 99.8792L15.8811 101.088L17.5839 100.039L19.2867 98.9895L18.5423 97.7811L16.8395 98.8302ZM17.5839 100.039L15.8811 101.088L16.6255 102.296L18.3283 101.247L20.0311 100.198L19.2867 98.9895L17.5839 100.039ZM18.3283 101.247L16.6255 102.296C17.2833 103.364 17.8701 104.508 18.3845 105.731L20.2282 104.956L22.0718 104.181C21.4814 102.777 20.8017 101.448 20.0311 100.198L18.3283 101.247ZM20.2282 104.956L18.3845 105.731L18.9603 107.101L20.804 106.326L22.6476 105.55L22.0718 104.181L20.2282 104.956ZM20.804 106.326L18.9603 107.101L19.5361 108.47L21.3798 107.695L23.2234 106.92L22.6476 105.55L20.804 106.326ZM21.3798 107.695L19.5361 108.47C20.2096 110.072 21.2115 111.439 22.5334 112.542L23.815 111.007L25.0966 109.471C24.2763 108.787 23.6547 107.946 23.2234 106.92L21.3798 107.695ZM23.815 111.007L22.5334 112.542L23.6498 113.474L24.9314 111.939L26.213 110.403L25.0966 109.471L23.815 111.007ZM24.9314 111.939L23.6498 113.474L24.7663 114.406L26.0479 112.871L27.3295 111.335L26.213 110.403L24.9314 111.939ZM26.0479 112.871L24.7663 114.406C25.7665 115.241 26.7001 116.137 27.568 117.096L29.0505 115.753L30.533 114.411C29.5396 113.314 28.4715 112.288 27.3295 111.335L26.0479 112.871ZM29.0505 115.753L27.568 117.096L28.5381 118.167L30.0206 116.824L31.5031 115.482L30.533 114.411L29.0505 115.753ZM30.0206 116.824L28.5381 118.167L29.5082 119.238L30.9907 117.896L32.4732 116.553L31.5031 115.482L30.0206 116.824ZM30.9907 117.896L29.5082 119.238C30.5611 120.401 31.7534 121.402 33.0811 122.239L34.1472 120.547L35.2134 118.855C34.1937 118.212 33.2816 117.446 32.4732 116.553L30.9907 117.896ZM34.1472 120.547L33.0811 122.239L34.3045 123.01L35.3707 121.318L36.4368 119.625L35.2134 118.855L34.1472 120.547ZM35.3707 121.318L34.3045 123.01L35.528 123.781L36.5941 122.088L37.6603 120.396L36.4368 119.625L35.3707 121.318ZM36.5941 122.088L35.528 123.781C36.7048 124.522 37.8783 125.257 39.0487 125.985L40.1055 124.287L41.1623 122.589C39.9982 121.865 38.8309 121.134 37.6603 120.396L36.5941 122.088ZM40.1055 124.287L39.0487 125.985L40.2653 126.743L41.3221 125.045L42.3789 123.347L41.1623 122.589L40.1055 124.287ZM41.3221 125.045L40.2653 126.743L41.4819 127.5L42.5388 125.802L43.5956 124.104L42.3789 123.347L41.3221 125.045ZM42.5388 125.802L41.4819 127.5C42.6649 128.236 43.8581 128.956 45.0615 129.659L46.0706 127.932L47.0797 126.206C45.9084 125.521 44.747 124.82 43.5956 124.104L42.5388 125.802ZM46.0706 127.932L45.0615 129.659L46.2992 130.382L47.3083 128.656L48.3174 126.929L47.0797 126.206L46.0706 127.932ZM47.3083 128.656L46.2992 130.382L47.5369 131.106L48.546 129.379L49.5551 127.652L48.3174 126.929L47.3083 128.656ZM48.546 129.379L47.5369 131.106C48.7059 131.789 49.8717 132.495 51.0344 133.225L52.0974 131.531L53.1605 129.837C51.9627 129.085 50.7609 128.357 49.5551 127.652L48.546 129.379ZM52.0974 131.531L51.0344 133.225L52.2646 133.997L53.3277 132.303L54.3907 130.609L53.1605 129.837L52.0974 131.531ZM53.3277 132.303L52.2646 133.997L53.4949 134.769L54.5579 133.075L55.621 131.381L54.3907 130.609L53.3277 132.303ZM54.5579 133.075L53.4949 134.769C54.8783 135.637 56.3772 136.238 57.9805 136.567L58.3836 134.609L58.7867 132.65C57.6496 132.416 56.598 131.994 55.621 131.381L54.5579 133.075ZM58.3836 134.609L57.9805 136.567L59.4087 136.861L59.8118 134.902L60.2149 132.943L58.7867 132.65L58.3836 134.609ZM59.8118 134.902L59.4087 136.861L60.837 137.155L61.2401 135.196L61.6432 133.237L60.2149 132.943L59.8118 134.902ZM61.2401 135.196L60.837 137.155C62.1011 137.415 63.3238 137.773 64.5064 138.229L65.2252 136.363L65.944 134.496C64.5534 133.961 63.1194 133.541 61.6432 133.237L61.2401 135.196ZM65.2252 136.363L64.5064 138.229L65.8474 138.745L66.5662 136.879L67.285 135.013L65.944 134.496L65.2252 136.363ZM66.5662 136.879L65.8474 138.745L67.1885 139.262L67.9073 137.396L68.6261 135.529L67.285 135.013L66.5662 136.879ZM67.9073 137.396L67.1885 139.262C68.5385 139.782 69.9127 140.232 71.3107 140.613L71.8359 138.683L72.3612 136.753C71.094 136.408 69.8491 136 68.6261 135.529L67.9073 137.396ZM71.8359 138.683L71.3107 140.613L72.6997 140.991L73.2249 139.061L73.7502 137.131L72.3612 136.753L71.8359 138.683ZM73.2249 139.061L72.6997 140.991L74.0887 141.369L74.614 139.439L75.1392 137.509L73.7502 137.131L73.2249 139.061ZM74.614 139.439L74.0887 141.369C75.4339 141.735 76.7858 142.089 78.1443 142.43L78.6319 140.49L79.1195 138.551C77.7859 138.216 76.4592 137.868 75.1392 137.509L74.614 139.439ZM78.6319 140.49L78.1443 142.43L79.5474 142.783L80.035 140.843L80.5226 138.904L79.1195 138.551L78.6319 140.49ZM80.035 140.843L79.5474 142.783L80.9505 143.136L81.4381 141.196L81.9256 139.256L80.5226 138.904L80.035 140.843ZM81.4381 141.196L80.9505 143.136C82.467 143.517 84.0109 143.695 85.5775 143.669L85.5452 141.67L85.5129 139.67C84.2955 139.69 83.1013 139.552 81.9256 139.256L81.4381 141.196ZM85.5452 141.67L85.5775 143.669L87.0286 143.646L86.9963 141.646L86.9639 139.646L85.5129 139.67L85.5452 141.67ZM86.9963 141.646L87.0286 143.646L88.4796 143.622L88.4473 141.623L88.415 139.623L86.9639 139.646L86.9963 141.646ZM88.4473 141.623L88.4796 143.622C89.6788 143.603 90.8496 143.755 91.9982 144.077L92.5388 142.151L93.0794 140.226C91.5567 139.798 89.9999 139.597 88.415 139.623L88.4473 141.623ZM92.5388 142.151L91.9982 144.077L93.3904 144.468L93.931 142.542L94.4716 140.617L93.0794 140.226L92.5388 142.151ZM93.931 142.542L93.3904 144.468L94.7827 144.859L95.3232 142.933L95.8638 141.008L94.4716 140.617L93.931 142.542ZM95.3232 142.933L94.7827 144.859C96.2676 145.276 97.78 145.516 99.3168 145.578L99.3976 143.579L99.4783 141.581C98.2539 141.531 97.0501 141.341 95.8638 141.008L95.3232 142.933ZM99.3976 143.579L99.3168 145.578L100.756 145.636L100.837 143.637L100.917 141.639L99.4783 141.581L99.3976 143.579ZM100.837 143.637L100.756 145.636L102.195 145.694L102.276 143.696L102.356 141.697L100.917 141.639L100.837 143.637ZM102.276 143.696L102.195 145.694C103.629 145.752 105.067 145.753 106.51 145.696L106.432 143.698L106.354 141.699C105.016 141.751 103.684 141.751 102.356 141.697L102.276 143.696ZM106.432 143.698L106.51 145.696L107.959 145.639L107.881 143.641L107.803 141.642L106.354 141.699L106.432 143.698ZM107.881 143.641L107.959 145.639L109.408 145.583L109.33 143.584L109.252 141.586L107.803 141.642L107.881 143.641ZM109.33 143.584L109.408 145.583C110.729 145.531 112.033 145.549 113.322 145.636L113.458 143.641L113.593 141.645C112.159 141.548 110.712 141.528 109.252 141.586L109.33 143.584ZM113.458 143.641L113.322 145.636L114.742 145.733L114.877 143.737L115.012 141.742L113.593 141.645L113.458 143.641ZM114.877 143.737L114.742 145.733L116.161 145.829L116.296 143.833L116.431 141.838L115.012 141.742L114.877 143.737ZM116.296 143.833L116.161 145.829C117.66 145.93 119.174 145.878 120.701 145.675L120.438 143.693L120.174 141.71C118.902 141.879 117.655 141.921 116.431 141.838L116.296 143.833ZM120.438 143.693L120.701 145.675L122.16 145.482L121.896 143.499L121.633 141.516L120.174 141.71L120.438 143.693ZM121.896 143.499L122.16 145.482L123.619 145.288L123.355 143.305L123.092 141.323L121.633 141.516L121.896 143.499ZM123.355 143.305L123.619 145.288C124.81 145.129 125.991 145.159 127.168 145.377L127.532 143.411L127.896 141.444C126.304 141.149 124.7 141.109 123.092 141.323L123.355 143.305ZM127.532 143.411L127.168 145.377L128.612 145.644L128.976 143.678L129.34 141.711L127.896 141.444L127.532 143.411ZM128.976 143.678L128.612 145.644L130.056 145.912L130.42 143.945L130.784 141.978L129.34 141.711L128.976 143.678ZM130.42 143.945L130.056 145.912C131.672 146.211 133.29 146.221 134.897 145.939L134.552 143.969L134.206 142C133.075 142.198 131.938 142.192 130.784 141.978L130.42 143.945ZM134.552 143.969L134.897 145.939L136.325 145.689L135.979 143.719L135.634 141.749L134.206 142L134.552 143.969ZM135.979 143.719L136.325 145.689L137.752 145.439L137.407 143.469L137.061 141.499L135.634 141.749L135.979 143.719ZM137.407 143.469L137.752 145.439C139.033 145.214 140.312 145.079 141.589 145.033L141.517 143.034L141.444 141.035C139.981 141.089 138.52 141.243 137.061 141.499L137.407 143.469ZM141.517 143.034L141.589 145.033L143.018 144.981L142.945 142.982L142.872 140.983L141.444 141.035L141.517 143.034ZM142.945 142.982L143.018 144.981L144.447 144.928L144.374 142.93L144.301 140.931L142.872 140.983L142.945 142.982ZM144.374 142.93L144.447 144.928C145.843 144.878 147.243 144.8 148.647 144.696L148.498 142.701L148.35 140.707C146.996 140.807 145.646 140.882 144.301 140.931L144.374 142.93ZM148.498 142.701L148.647 144.696L150.084 144.589L149.936 142.595L149.788 140.6L148.35 140.707L148.498 142.701ZM149.936 142.595L150.084 144.589L151.522 144.482L151.374 142.488L151.226 140.493L149.788 140.6L149.936 142.595ZM151.374 142.488L151.522 144.482C152.985 144.374 154.43 144.174 155.856 143.882L155.455 141.923L155.055 139.963C153.797 140.22 152.521 140.397 151.226 140.493L151.374 142.488ZM155.455 141.923L155.856 143.882L157.255 143.596L156.854 141.637L156.454 139.677L155.055 139.963L155.455 141.923ZM156.854 141.637L157.255 143.596L158.654 143.31L158.253 141.351L157.852 139.391L156.454 139.677L156.854 141.637ZM158.253 141.351L158.654 143.31C159.922 143.051 161.211 142.861 162.521 142.742L162.339 140.75L162.158 138.758C160.703 138.891 159.268 139.102 157.852 139.391L158.253 141.351ZM162.339 140.75L162.521 142.742L163.962 142.61L163.78 140.619L163.599 138.627L162.158 138.758L162.339 140.75ZM163.78 140.619L163.962 142.61L165.403 142.479L165.221 140.487L165.039 138.496L163.599 138.627L163.78 140.619ZM165.221 140.487L165.403 142.479C166.651 142.365 167.907 142.376 169.173 142.514L169.389 140.526L169.605 138.537C168.078 138.371 166.556 138.357 165.039 138.496L165.221 140.487ZM169.389 140.526L169.173 142.514L170.628 142.672L170.844 140.684L171.06 138.696L169.605 138.537L169.389 140.526ZM170.844 140.684L170.628 142.672L172.084 142.83L172.3 140.842L172.516 138.854L171.06 138.696L170.844 140.684ZM172.3 140.842L172.084 142.83C173.576 142.992 175.061 143.045 176.539 142.987L176.461 140.988L176.382 138.99C175.105 139.04 173.816 138.995 172.516 138.854L172.3 140.842ZM176.461 140.988L176.539 142.987L177.976 142.93L177.897 140.932L177.819 138.933L176.382 138.99L176.461 140.988ZM177.897 140.932L177.976 142.93L179.412 142.874L179.334 140.876L179.255 138.877L177.819 138.933L177.897 140.932ZM179.334 140.876L179.412 142.874C180.962 142.813 182.489 142.556 183.991 142.105L183.415 140.189L182.84 138.274C181.656 138.629 180.462 138.83 179.255 138.877L179.334 140.876ZM183.415 140.189L183.991 142.105L185.391 141.684L184.815 139.769L184.24 137.853L182.84 138.274L183.415 140.189ZM184.815 139.769L185.391 141.684L186.791 141.263L186.215 139.348L185.64 137.432L184.24 137.853L184.815 139.769ZM186.215 139.348L186.791 141.263C188.028 140.891 189.272 140.628 190.524 140.473L190.277 138.488L190.03 136.503C188.552 136.687 187.088 136.997 185.64 137.432L186.215 139.348ZM190.277 138.488L190.524 140.473L191.946 140.296L191.699 138.311L191.453 136.327L190.03 136.503L190.277 138.488ZM191.699 138.311L191.946 140.296L193.369 140.119L193.122 138.134L192.875 136.15L191.453 136.327L191.699 138.311ZM193.122 138.134L193.369 140.119C194.869 139.933 196.338 139.595 197.773 139.106L197.128 137.213L196.483 135.32C195.306 135.721 194.104 135.997 192.875 136.15L193.122 138.134ZM197.128 137.213L197.773 139.106L199.134 138.643L198.489 136.75L197.844 134.856L196.483 135.32L197.128 137.213ZM198.489 136.75L199.134 138.643L200.495 138.179L199.85 136.286L199.205 134.393L197.844 134.856L198.489 136.75ZM199.85 136.286L200.495 138.179C201.618 137.797 202.784 137.578 203.999 137.524L203.91 135.526L203.822 133.528C202.235 133.598 200.694 133.886 199.205 134.393L199.85 136.286ZM203.91 135.526L203.999 137.524L205.46 137.46L205.371 135.462L205.283 133.464L203.822 133.528L203.91 135.526ZM205.371 135.462L205.46 137.46L206.92 137.395L206.832 135.397L206.743 133.399L205.283 133.464L205.371 135.462ZM206.832 135.397L206.92 137.395C208.414 137.329 209.888 137.161 211.342 136.889L210.976 134.923L210.609 132.957C209.341 133.194 208.052 133.341 206.743 133.399L206.832 135.397ZM210.976 134.923L211.342 136.889L212.761 136.625L212.395 134.659L212.028 132.693L210.609 132.957L210.976 134.923ZM212.395 134.659L212.761 136.625L214.18 136.36L213.814 134.394L213.447 132.428L212.028 132.693L212.395 134.659ZM213.814 134.394L214.18 136.36C215.676 136.081 217.13 135.653 218.542 135.075L217.784 133.224L217.027 131.373C215.867 131.848 214.674 132.199 213.447 132.428L213.814 134.394ZM217.784 133.224L218.542 135.075L219.882 134.527L219.125 132.676L218.367 130.825L217.027 131.373L217.784 133.224ZM219.125 132.676L219.882 134.527L221.222 133.979L220.465 132.128L219.708 130.277L218.367 130.825L219.125 132.676ZM220.465 132.128L221.222 133.979C222.373 133.508 223.559 133.169 224.782 132.96L224.446 130.988L224.109 129.017C222.597 129.275 221.129 129.695 219.708 130.277L220.465 132.128ZM224.446 130.988L224.782 132.96L226.209 132.716L225.872 130.745L225.535 128.773L224.109 129.017L224.446 130.988ZM225.872 130.745L226.209 132.716L227.635 132.473L227.298 130.501L226.962 128.53L225.535 128.773L225.872 130.745ZM227.298 130.501L227.635 132.473C229.257 132.196 230.781 131.621 232.196 130.757L231.154 129.05L230.112 127.343C229.123 127.947 228.076 128.34 226.962 128.53L227.298 130.501ZM231.154 129.05L232.196 130.757L233.449 129.992L232.407 128.285L231.365 126.578L230.112 127.343L231.154 129.05ZM232.407 128.285L233.449 129.992L234.702 129.227L233.66 127.52L232.618 125.813L231.365 126.578L232.407 128.285ZM233.66 127.52L234.702 129.227C235.694 128.622 236.751 128.221 237.884 128.018L237.532 126.049L237.18 124.081C235.555 124.371 234.031 124.951 232.618 125.813L233.66 127.52ZM237.532 126.049L237.884 128.018L239.322 127.761L238.969 125.792L238.617 123.823L237.18 124.081L237.532 126.049ZM238.969 125.792L239.322 127.761L240.759 127.504L240.407 125.535L240.055 123.566L238.617 123.823L238.969 125.792ZM240.407 125.535L240.759 127.504C242.372 127.215 243.885 126.654 245.287 125.821L244.266 124.102L243.245 122.382C242.259 122.967 241.2 123.362 240.055 123.566L240.407 125.535ZM244.266 124.102L245.287 125.821L246.532 125.082L245.511 123.362L244.489 121.643L243.245 122.382L244.266 124.102ZM245.511 123.362L246.532 125.082L247.776 124.343L246.755 122.623L245.734 120.904L244.489 121.643L245.511 123.362ZM246.755 122.623L247.776 124.343C248.897 123.677 250.05 123.089 251.235 122.578L250.443 120.741L249.651 118.905C248.307 119.485 247.001 120.151 245.734 120.904L246.755 122.623ZM250.443 120.741L251.235 122.578L252.554 122.009L251.762 120.173L250.97 118.336L249.651 118.905L250.443 120.741ZM251.762 120.173L252.554 122.009L253.872 121.44L253.08 119.604L252.288 117.767L250.97 118.336L251.762 120.173ZM253.08 119.604L253.872 121.44C255.253 120.845 256.566 120.125 257.809 119.281L256.686 117.626L255.564 115.971C254.529 116.673 253.437 117.272 252.288 117.767L253.08 119.604ZM256.686 117.626L257.809 119.281L258.997 118.476L257.874 116.821L256.751 115.165L255.564 115.971L256.686 117.626ZM257.874 116.821L258.997 118.476L260.184 117.67L259.061 116.015L257.939 114.36L256.751 115.165L257.874 116.821ZM259.061 116.015L260.184 117.67C261.219 116.968 262.317 116.366 263.481 115.862L262.686 114.027L261.892 112.191C260.501 112.793 259.183 113.516 257.939 114.36L259.061 116.015ZM262.686 114.027L263.481 115.862L264.812 115.286L264.017 113.45L263.223 111.615L261.892 112.191L262.686 114.027ZM264.017 113.45L264.812 115.286L266.143 114.709L265.349 112.874L264.554 111.038L263.223 111.615L264.017 113.45ZM265.349 112.874L266.143 114.709C267.714 114.029 269.059 113.013 270.161 111.685L268.622 110.408L267.083 109.131C266.375 109.985 265.537 110.613 264.554 111.038L265.349 112.874ZM268.622 110.408L270.161 111.685L271.105 110.548L269.566 109.271L268.027 107.994L267.083 109.131L268.622 110.408ZM269.566 109.271L271.105 110.548L272.049 109.411L270.51 108.133L268.971 106.856L268.027 107.994L269.566 109.271ZM270.51 108.133L272.049 109.411C272.78 108.529 273.649 107.835 274.668 107.317L273.762 105.534L272.856 103.751C271.349 104.517 270.05 105.555 268.971 106.856L270.51 108.133ZM273.762 105.534L274.668 107.317L275.985 106.648L275.078 104.865L274.172 103.082L272.856 103.751L273.762 105.534ZM275.078 104.865L275.985 106.648L277.301 105.979L276.395 104.196L275.488 102.413L274.172 103.082L275.078 104.865ZM276.395 104.196L277.301 105.979C278.847 105.193 280.133 104.092 281.136 102.688L279.509 101.526L277.882 100.363C277.258 101.236 276.468 101.915 275.488 102.413L276.395 104.196ZM279.509 101.526L281.136 102.688L281.984 101.502L280.357 100.339L278.729 99.1763L277.882 100.363L279.509 101.526ZM280.357 100.339L281.984 101.502L282.832 100.315L281.204 99.1526L279.577 97.9899L278.729 99.1763L280.357 100.339ZM281.204 99.1526L282.832 100.315C283.593 99.2492 284.416 98.2475 285.298 97.3096L283.842 95.939L282.385 94.5683C281.378 95.6389 280.442 96.7797 279.577 97.9899L281.204 99.1526ZM283.842 95.939L285.298 97.3096L286.283 96.2629L284.827 94.8922L283.371 93.5215L282.385 94.5683L283.842 95.939ZM284.827 94.8922L286.283 96.2629L287.269 95.2161L285.812 93.8454L284.356 92.4747L283.371 93.5215L284.827 94.8922ZM285.812 93.8454L287.269 95.2161C288.334 94.0845 289.236 92.8319 289.973 91.462L288.211 90.5146L286.45 89.5672C285.878 90.6299 285.181 91.5978 284.356 92.4747L285.812 93.8454ZM288.211 90.5146L289.973 91.462L290.654 90.1943L288.893 89.2469L287.132 88.2994L286.45 89.5672L288.211 90.5146ZM288.893 89.2469L290.654 90.1943L291.336 88.9265L289.575 87.9791L287.814 87.0317L287.132 88.2994L288.893 89.2469ZM289.575 87.9791L291.336 88.9265C291.951 87.7845 292.635 86.6847 293.39 85.6266L291.762 84.4649L290.134 83.3032C289.281 84.4981 288.508 85.7411 287.814 87.0317L289.575 87.9791ZM291.762 84.4649L293.39 85.6266L294.228 84.4523L292.6 83.2906L290.972 82.1289L290.134 83.3032L291.762 84.4649ZM292.6 83.2906L294.228 84.4523L295.066 83.2781L293.438 82.1163L291.81 80.9546L290.972 82.1289L292.6 83.2906ZM293.438 82.1163L295.066 83.2781C296.01 81.9555 296.695 80.5002 297.119 78.9236L295.188 78.4042L293.256 77.8849C292.955 79.0046 292.474 80.0241 291.81 80.9546L293.438 82.1163ZM295.188 78.4042L297.119 78.9236L297.497 77.5182L295.565 76.9989L293.634 76.4795L293.256 77.8849L295.188 78.4042ZM295.565 76.9989L297.497 77.5182L297.875 76.1129L295.943 75.5936L294.012 75.0742L293.634 76.4795L295.565 76.9989ZM295.943 75.5936L297.875 76.1129C298.208 74.8745 298.639 73.6876 299.169 72.5506L297.356 71.7058L295.544 70.861C294.914 72.2113 294.404 73.6163 294.012 75.0742L295.943 75.5936ZM297.356 71.7058L299.169 72.5506L299.773 71.2543L297.961 70.4095L296.148 69.5647L295.544 70.861L297.356 71.7058ZM297.961 70.4095L299.773 71.2543L300.377 69.958L298.565 69.1132L296.752 68.2684L296.148 69.5647L297.961 70.4095ZM298.565 69.1132L300.377 69.958C300.976 68.6729 301.53 67.3704 302.037 66.0506L300.171 65.3326L298.304 64.6146C297.829 65.8484 297.312 67.0663 296.752 68.2684L298.565 69.1132ZM300.171 65.3326L302.037 66.0506L302.549 64.7198L300.683 64.0018L298.816 63.2838L298.304 64.6146L300.171 65.3326ZM300.683 64.0018L302.549 64.7198L303.061 63.3889L301.194 62.6709L299.328 61.9529L298.816 63.2838L300.683 64.0018ZM301.194 62.6709L303.061 63.3889C303.555 62.1041 304.049 60.7967 304.541 59.4666L302.666 58.772L300.79 58.0773C300.303 59.3923 299.816 60.6841 299.328 61.9529L301.194 62.6709ZM302.666 58.772L304.541 59.4666L305.052 58.0881L303.176 57.3935L301.301 56.6988L300.79 58.0773L302.666 58.772ZM303.176 57.3935L305.052 58.0881L305.563 56.7096L303.687 56.0149L301.812 55.3202L301.301 56.6988L303.176 57.3935ZM303.687 56.0149L305.563 56.7096C306.133 55.1687 306.424 53.5742 306.431 51.9362L304.431 51.9276L302.431 51.9189C302.426 53.0858 302.221 54.2161 301.812 55.3202L303.687 56.0149ZM304.431 51.9276L306.431 51.9362L306.437 50.4744L304.437 50.4657L302.437 50.4571L302.431 51.9189L304.431 51.9276ZM304.437 50.4657L306.437 50.4744L306.444 49.0126L304.444 49.0039L302.444 48.9952L302.437 50.4571L304.437 50.4657ZM304.444 49.0039L306.444 49.0126C306.451 47.3755 306.175 45.7754 305.622 44.2222L303.738 44.8936L301.854 45.565C302.254 46.6874 302.449 47.8275 302.444 48.9952L304.444 49.0039ZM303.738 44.8936L305.622 44.2222L305.125 42.8277L303.241 43.4991L301.357 44.1705L301.854 45.565L303.738 44.8936ZM303.241 43.4991L305.125 42.8277L304.628 41.4332L302.744 42.1046L300.86 42.776L301.357 44.1705L303.241 43.4991ZM302.744 42.1046L304.628 41.4332C304.215 40.2754 303.983 39.1086 303.926 37.9274L301.928 38.0243L299.93 38.1212C300.007 39.7048 300.319 41.2582 300.86 42.776L302.744 42.1046ZM301.928 38.0243L303.926 37.9274L303.856 36.4864L301.858 36.5833L299.86 36.6802L299.93 38.1212L301.928 38.0243ZM301.858 36.5833L303.856 36.4864L303.786 35.0454L301.788 35.1424L299.79 35.2393L299.86 36.6802L301.858 36.5833ZM301.788 35.1424L303.786 35.0454C303.711 33.5089 303.461 31.9977 303.037 30.5147L301.114 31.065L299.191 31.6153C299.531 32.804 299.731 34.011 299.79 35.2393L301.788 35.1424ZM301.114 31.065L303.037 30.5147L302.638 29.1222L300.715 29.6725L298.793 30.2228L299.191 31.6153L301.114 31.065ZM300.715 29.6725L302.638 29.1222L302.24 27.7297L300.317 28.28L298.394 28.8303L298.793 30.2228L300.715 29.6725ZM300.317 28.28L302.24 27.7297C301.791 26.1627 301.078 24.7178 300.107 23.4048L298.499 24.5944L296.891 25.784C297.579 26.7135 298.078 27.7256 298.394 28.8303L300.317 28.28ZM298.499 24.5944L300.107 23.4048L299.242 22.2361L297.634 23.4258L296.027 24.6154L296.891 25.784L298.499 24.5944ZM297.634 23.4258L299.242 22.2361L298.377 21.0674L296.77 22.2571L295.162 23.4467L296.027 24.6154L297.634 23.4258ZM296.77 22.2571L298.377 21.0674C297.61 20.0306 296.929 18.9406 296.334 17.7968L294.56 18.72L292.786 19.6432C293.478 20.9731 294.27 22.2412 295.162 23.4467L296.77 22.2571ZM294.56 18.72L296.334 17.7968L295.663 16.5075L293.889 17.4307L292.115 18.3539L292.786 19.6432L294.56 18.72ZM293.889 17.4307L295.663 16.5075L294.992 15.2183L293.218 16.1414L291.444 17.0646L292.115 18.3539L293.889 17.4307ZM293.218 16.1414L294.992 15.2183C294.204 13.7034 293.108 12.4385 291.722 11.4431L290.556 13.0679L289.389 14.6926C290.266 15.3216 290.945 16.1057 291.444 17.0646L293.218 16.1414ZM290.556 13.0679L291.722 11.4431L290.543 10.5966L289.376 12.2213L288.21 13.846L289.389 14.6926L290.556 13.0679ZM289.376 12.2213L290.543 10.5966L289.363 9.74995L288.197 11.3747L287.031 12.9994L288.21 13.846L289.376 12.2213ZM288.197 11.3747L289.363 9.74995C288.306 8.9913 287.299 8.15836 286.341 7.25036L284.965 8.70193L283.59 10.1535C284.678 11.1848 285.825 12.1337 287.031 12.9994L288.197 11.3747ZM284.965 8.70193L286.341 7.25036L285.275 6.23963L283.899 7.6912L282.523 9.14276L283.59 10.1535L284.965 8.70193ZM283.899 7.6912L285.275 6.23963L284.209 5.2289L282.833 6.68047L281.457 8.13203L282.523 9.14276L283.899 7.6912ZM282.833 6.68047L284.209 5.2289C282.841 3.93238 281.173 3.21474 279.288 3.10036L279.167 5.09669L279.046 7.09302C280.002 7.15106 280.779 7.48926 281.457 8.13203L282.833 6.68047ZM279.167 5.09669L279.288 3.10036L277.807 3.0105L277.686 5.00683L277.565 7.00316L279.046 7.09302L279.167 5.09669ZM277.686 5.00683L277.807 3.0105L276.326 2.92064L276.205 4.91697L276.084 6.9133L277.565 7.00316L277.686 5.00683ZM276.205 4.91697L276.326 2.92064C275.091 2.84571 273.915 2.60419 272.79 2.19862L272.112 4.08006L271.433 5.96151C272.925 6.4994 274.478 6.81582 276.084 6.9133L276.205 4.91697ZM272.112 4.08006L272.79 2.19862L271.426 1.7069L270.748 3.58834L270.069 5.46978L271.433 5.96151L272.112 4.08006ZM270.748 3.58834L271.426 1.7069L270.062 1.21517L269.384 3.09662L268.706 4.97806L270.069 5.46978L270.748 3.58834ZM269.384 3.09662L270.062 1.21517C268.496 0.650307 266.874 0.420784 265.215 0.530317L265.347 2.52597L265.479 4.52162C266.586 4.44855 267.655 4.59946 268.706 4.97806L269.384 3.09662ZM265.347 2.52597L265.215 0.530317L263.774 0.625489L263.906 2.62115L264.038 4.6168L265.479 4.52162L265.347 2.52597ZM263.906 2.62115L263.774 0.625489L262.333 0.720663L262.465 2.71632L262.596 4.71197L264.038 4.6168L263.906 2.62115ZM262.465 2.71632L262.333 0.720663C261.087 0.802927 259.845 0.757363 258.604 0.583666L258.327 2.56435L258.05 4.54504C259.561 4.75657 261.077 4.81231 262.596 4.71197L262.465 2.71632ZM258.327 2.56435L258.604 0.583666L257.17 0.382893L256.893 2.36358L256.615 4.34426L258.05 4.54504L258.327 2.56435ZM256.893 2.36358L257.17 0.382893L255.736 0.18212L255.459 2.1628L255.181 4.14349L256.615 4.34426L256.893 2.36358ZM255.459 2.1628L255.736 0.18212C254.197 -0.0332548 252.657 -0.0577347 251.118 0.109405L251.334 2.09771L251.55 4.08601C252.759 3.95472 253.968 3.97364 255.181 4.14349L255.459 2.1628ZM251.334 2.09771L251.118 0.109405L249.687 0.264944L249.903 2.25325L250.119 4.24155L251.55 4.08601L251.334 2.09771ZM249.903 2.25325L249.687 0.264944L248.255 0.420483L248.471 2.40879L248.687 4.39709L250.119 4.24155L249.903 2.25325ZM248.471 2.40879L248.255 0.420483C246.841 0.574042 245.433 0.770095 244.031 1.00863L244.366 2.98031L244.702 4.95198C246.025 4.72692 247.353 4.54196 248.687 4.39709L248.471 2.40879ZM244.366 2.98031L244.031 1.00863L242.611 1.25025L242.946 3.22192L243.281 5.1936L244.702 4.95198L244.366 2.98031ZM242.946 3.22192L242.611 1.25025L241.19 1.49187L241.526 3.46354L241.861 5.43522L243.281 5.1936L242.946 3.22192ZM241.526 3.46354L241.19 1.49187C239.719 1.7422 238.277 2.11235 236.868 2.60203L237.524 4.49131L238.18 6.3806C239.381 5.96351 240.607 5.64847 241.861 5.43522L241.526 3.46354ZM237.524 4.49131L236.868 2.60203L235.507 3.07463L236.163 4.96391L236.819 6.85319L238.18 6.3806L237.524 4.49131ZM236.163 4.96391L235.507 3.07463L234.146 3.54722L234.802 5.43651L235.459 7.32579L236.819 6.85319L236.163 4.96391ZM234.802 5.43651L234.146 3.54722C232.782 4.02123 231.445 4.55731 230.138 5.15549L230.97 6.97421L231.802 8.79292C232.994 8.2476 234.213 7.75856 235.459 7.32579L234.802 5.43651ZM230.97 6.97421L230.138 5.15549L228.835 5.75146L229.667 7.57018L230.499 9.3889L231.802 8.79292L230.97 6.97421ZM229.667 7.57018L228.835 5.75146L227.532 6.34744L228.364 8.16615L229.196 9.98487L230.499 9.3889L229.667 7.57018ZM228.364 8.16615L227.532 6.34744C226.24 6.93887 224.973 7.57392 223.732 8.25258L224.691 10.0073L225.651 11.7621C226.808 11.1293 227.99 10.5369 229.196 9.98487L228.364 8.16615ZM224.691 10.0073L223.732 8.25258L222.482 8.93605L223.441 10.6908L224.401 12.4455L225.651 11.7621L224.691 10.0073ZM223.441 10.6908L222.482 8.93605L221.232 9.61953L222.192 11.3743L223.151 13.129L224.401 12.4455L223.441 10.6908ZM222.192 11.3743L221.232 9.61953C219.974 10.3074 218.756 11.0558 217.577 11.8647L218.708 13.5139L219.839 15.1631C220.907 14.4305 222.011 13.7525 223.151 13.129L222.192 11.3743ZM218.708 13.5139L217.577 11.8647L216.406 12.668L217.537 14.3172L218.668 15.9665L219.839 15.1631L218.708 13.5139ZM217.537 14.3172L216.406 12.668L215.235 13.4714L216.366 15.1206L217.497 16.7698L218.668 15.9665L217.537 14.3172ZM216.366 15.1206L215.235 13.4714C214.096 14.2527 212.969 15.0489 211.855 15.8602L213.032 17.4771L214.209 19.0939C215.293 18.3047 216.389 17.53 217.497 16.7698L216.366 15.1206ZM213.032 17.4771L211.855 15.8602L210.709 16.6943L211.886 18.3112L213.063 19.9281L214.209 19.0939L213.032 17.4771ZM211.886 18.3112L210.709 16.6943L209.563 17.5285L210.74 19.1454L211.918 20.7623L213.063 19.9281L211.886 18.3112ZM210.74 19.1454L209.563 17.5285C208.516 18.2907 207.419 19.0121 206.271 19.6925L207.29 21.4132L208.309 23.1339C209.563 22.391 210.766 21.6006 211.918 20.7623L210.74 19.1454ZM207.29 21.4132L206.271 19.6925L205.018 20.4342L206.038 22.1549L207.057 23.8756L208.309 23.1339L207.29 21.4132ZM206.038 22.1549L205.018 20.4342L203.766 21.176L204.786 22.8967L205.805 24.6174L207.057 23.8756L206.038 22.1549ZM204.786 22.8967L203.766 21.176C202.303 22.0429 201.096 23.1955 200.162 24.6175L201.834 25.7155L203.505 26.8135C204.105 25.9002 204.866 25.1737 205.805 24.6174L204.786 22.8967ZM201.834 25.7155L200.162 24.6175L199.363 25.8345L201.034 26.9326L202.706 28.0306L203.505 26.8135L201.834 25.7155ZM201.034 26.9326L199.363 25.8345L198.563 27.0516L200.235 28.1496L201.906 29.2477L202.706 28.0306L201.034 26.9326ZM200.235 28.1496L198.563 27.0516C197.899 28.0622 197.108 28.9613 196.186 29.7525L197.489 31.2703L198.791 32.788C199.997 31.7537 201.036 30.5723 201.906 29.2477L200.235 28.1496ZM197.489 31.2703L196.186 29.7525L195.078 30.704L196.38 32.2218L197.683 33.7395L198.791 32.788L197.489 31.2703ZM196.38 32.2218L195.078 30.704L193.969 31.6555L195.271 33.1733L196.574 34.691L197.683 33.7395L196.38 32.2218ZM195.271 33.1733L193.969 31.6555C192.655 32.7829 191.679 34.1641 191.059 35.7761L192.926 36.4934L194.793 37.2107C195.173 36.2215 195.76 35.3893 196.574 34.691L195.271 33.1733ZM192.926 36.4934L191.059 35.7761L190.539 37.1318L192.405 37.8491L194.272 38.5664L194.793 37.2107L192.926 36.4934ZM192.405 37.8491L190.539 37.1318L190.018 38.4875L191.885 39.2048L193.752 39.9222L194.272 38.5664L192.405 37.8491ZM191.885 39.2048L190.018 38.4875C189.493 39.8525 189.044 41.231 188.672 42.6228L190.604 43.1399L192.536 43.6571C192.871 42.4033 193.277 41.1584 193.752 39.9222L191.885 39.2048ZM190.604 43.1399L188.672 42.6228L188.303 44.0017L190.235 44.5188L192.167 45.0359L192.536 43.6571L190.604 43.1399ZM190.235 44.5188L188.303 44.0017L187.934 45.3805L189.866 45.8976L191.798 46.4148L192.167 45.0359L190.235 44.5188ZM189.866 45.8976L187.934 45.3805C187.594 46.6502 187.198 47.9192 186.746 49.1877L188.63 49.8589L190.514 50.5301C191.001 49.1625 191.429 47.7907 191.798 46.4148L189.866 45.8976ZM188.63 49.8589L186.746 49.1877L186.257 50.5616L188.141 51.2329L190.025 51.9041L190.514 50.5301L188.63 49.8589ZM188.141 51.2329L186.257 50.5616L185.767 51.9356L187.651 52.6068L189.535 53.278L190.025 51.9041L188.141 51.2329ZM187.651 52.6068L185.767 51.9356C185.223 53.4642 184.944 55.0435 184.932 56.6644L186.932 56.6786L188.932 56.6927C188.94 55.5207 189.141 54.3855 189.535 53.278L187.651 52.6068ZM186.932 56.6786L184.932 56.6644L184.922 58.12L186.922 58.1342L188.922 58.1484L188.932 56.6927L186.932 56.6786ZM186.922 58.1342L184.922 58.12L184.911 59.5757L186.911 59.5899L188.911 59.604L188.922 58.1484L186.922 58.1342ZM186.911 59.5899L184.911 59.5757C184.9 61.24 185.214 62.8533 185.849 64.4009L187.7 63.6417L189.55 62.8825C189.114 61.8206 188.903 60.7327 188.911 59.604L186.911 59.5899ZM187.7 63.6417L185.849 64.4009L186.407 65.7609L188.258 65.0017L190.108 64.2426L189.55 62.8825L187.7 63.6417ZM188.258 65.0017L186.407 65.7609L186.965 67.121L188.816 66.3618L190.666 65.6026L190.108 64.2426L188.258 65.0017ZM188.816 66.3618L186.965 67.121C187.478 68.3706 187.919 69.6054 188.29 70.8256L190.204 70.2439L192.117 69.6621C191.708 68.3157 191.224 66.9625 190.666 65.6026L188.816 66.3618ZM190.204 70.2439L188.29 70.8256L188.697 72.1633L190.61 71.5816L192.524 70.9998L192.117 69.6621L190.204 70.2439ZM190.61 71.5816L188.697 72.1633L189.104 73.501L191.017 72.9192L192.931 72.3375L192.524 70.9998L190.61 71.5816ZM191.017 72.9192L189.104 73.501C189.519 74.8669 190.022 76.205 190.613 77.5148L192.436 76.6928L194.259 75.8707C193.738 74.7158 193.296 73.5382 192.931 72.3375L191.017 72.9192ZM192.436 76.6928L190.613 77.5148L191.192 78.7994L193.015 77.9774L194.838 77.1553L194.259 75.8707L192.436 76.6928ZM193.015 77.9774L191.192 78.7994L191.771 80.084L193.594 79.262L195.418 78.4399L194.838 77.1553L193.015 77.9774ZM193.594 79.262L191.771 80.084C192.394 81.4663 193.177 82.7521 194.118 83.9379L195.685 82.695L197.251 81.4521C196.516 80.5253 195.906 79.5224 195.418 78.4399L193.594 79.262ZM195.685 82.695L194.118 83.9379L194.991 85.039L196.558 83.796L198.125 82.5531L197.251 81.4521L195.685 82.695ZM196.558 83.796L194.991 85.039L195.864 86.14L197.431 84.8971L198.998 83.6541L198.125 82.5531L196.558 83.796ZM197.431 84.8971L195.864 86.14C196.686 87.1755 197.493 88.2354 198.286 89.3199L199.9 88.1395L201.515 86.959C200.692 85.8329 199.853 84.7313 198.998 83.6541L197.431 84.8971ZM199.9 88.1395L198.286 89.3199L199.128 90.4721L200.743 89.2916L202.357 88.1112L201.515 86.959L199.9 88.1395ZM200.743 89.2916L199.128 90.4721L199.971 91.6243L201.585 90.4438L203.2 89.2634L202.357 88.1112L200.743 89.2916ZM201.585 90.4438L199.971 91.6243C200.877 92.8635 201.922 93.9732 203.105 94.9506L204.379 93.409L205.653 91.8674C204.727 91.1018 203.91 90.2348 203.2 89.2634L201.585 90.4438ZM204.379 93.409L203.105 94.9506L204.204 95.8589L205.478 94.3173L206.752 92.7758L205.653 91.8674L204.379 93.409ZM205.478 94.3173L204.204 95.8589L205.303 96.7673L206.577 95.2257L207.851 93.6841L206.752 92.7758L205.478 94.3173ZM206.577 95.2257L205.303 96.7673C206.404 97.6772 207.546 98.5379 208.731 99.3494L209.861 97.6996L210.992 96.0499C209.906 95.3057 208.859 94.5172 207.851 93.6841L206.577 95.2257ZM209.861 97.6996L208.731 99.3494L209.914 100.16L211.044 98.5104L212.175 96.8606L210.992 96.0499L209.861 97.6996ZM211.044 98.5104L209.914 100.16L211.097 100.971L212.228 99.3212L213.358 97.6714L212.175 96.8606L211.044 98.5104ZM212.228 99.3212L211.097 100.971C212.196 101.724 213.277 102.518 214.339 103.351L215.573 101.778L216.808 100.205C215.679 99.3185 214.529 98.474 213.358 97.6714L212.228 99.3212ZM215.573 101.778L214.339 103.351L215.48 104.248L216.715 102.675L217.95 101.101L216.808 100.205L215.573 101.778ZM216.715 102.675L215.48 104.248L216.622 105.144L217.857 103.571L219.092 101.998L217.95 101.101L216.715 102.675ZM217.857 103.571L216.622 105.144C217.963 106.197 219.485 106.901 221.164 107.252L221.573 105.294L221.982 103.337C220.898 103.11 219.943 102.665 219.092 101.998L217.857 103.571ZM221.573 105.294L221.164 107.252L222.603 107.553L223.013 105.595L223.422 103.638L221.982 103.337L221.573 105.294ZM223.013 105.595L222.603 107.553L224.043 107.854L224.453 105.897L224.862 103.939L223.422 103.638L223.013 105.595ZM224.453 105.897L224.043 107.854C225.282 108.113 226.451 108.498 227.553 109.005L228.39 107.189L229.227 105.372C227.842 104.735 226.386 104.258 224.862 103.939L224.453 105.897ZM228.39 107.189L227.553 109.005L228.85 109.602L229.686 107.786L230.523 105.969L229.227 105.372L228.39 107.189ZM229.686 107.786L228.85 109.602L230.146 110.199L230.982 108.382L231.819 106.566L230.523 105.969L229.686 107.786ZM230.982 108.382L230.146 110.199C231.328 110.743 232.498 111.355 233.658 112.035L234.67 110.31L235.682 108.585C234.412 107.84 233.124 107.167 231.819 106.566L230.982 108.382ZM234.67 110.31L233.658 112.035L234.924 112.778L235.936 111.053L236.948 109.328L235.682 108.585L234.67 110.31ZM235.936 111.053L234.924 112.778L236.19 113.521L237.202 111.796L238.214 110.071L236.948 109.328L235.936 111.053ZM237.202 111.796L236.19 113.521C237.632 114.367 239.185 114.904 240.835 115.126L241.101 113.143L241.367 111.161C240.248 111.011 239.202 110.65 238.214 110.071L237.202 111.796ZM241.101 113.143L240.835 115.126L242.278 115.319L242.544 113.337L242.81 111.355L241.367 111.161L241.101 113.143ZM242.544 113.337L242.278 115.319L243.722 115.513L243.988 113.531L244.254 111.549L242.81 111.355L242.544 113.337ZM243.988 113.531L243.722 115.513C245.062 115.693 246.386 115.916 247.695 116.184L248.095 114.224L248.495 112.264C247.096 111.979 245.683 111.74 244.254 111.549L243.988 113.531ZM248.095 114.224L247.695 116.184L249.107 116.471L249.507 114.512L249.906 112.552L248.495 112.264L248.095 114.224ZM249.507 114.512L249.107 116.471L250.518 116.759L250.918 114.8L251.318 112.84L249.906 112.552L249.507 114.512ZM250.918 114.8L250.518 116.759C251.781 117.017 253.022 117.361 254.241 117.793L254.908 115.907L255.575 114.022C254.182 113.529 252.762 113.135 251.318 112.84L250.918 114.8ZM254.908 115.907L254.241 117.793L255.602 118.274L256.269 116.389L256.936 114.503L255.575 114.022L254.908 115.907ZM256.269 116.389L255.602 118.274L256.964 118.756L257.631 116.87L258.298 114.985L256.936 114.503L256.269 116.389ZM257.631 116.87L256.964 118.756C258.417 119.27 259.907 119.608 261.432 119.768L261.642 117.779L261.851 115.79C260.64 115.663 259.457 115.395 258.298 114.985L257.631 116.87ZM261.642 117.779L261.432 119.768L262.858 119.918L263.067 117.929L263.277 115.94L261.851 115.79L261.642 117.779ZM263.067 117.929L262.858 119.918L264.284 120.068L264.493 118.079L264.703 116.09L263.277 115.94L263.067 117.929ZM264.493 118.079L264.284 120.068C265.556 120.203 266.82 120.427 268.075 120.744L268.564 118.805L269.053 116.865C267.616 116.503 266.165 116.245 264.703 116.09L264.493 118.079ZM268.564 118.805L268.075 120.744L269.477 121.098L269.966 119.158L270.456 117.219L269.053 116.865L268.564 118.805ZM269.966 119.158L269.477 121.098L270.88 121.451L271.369 119.512L271.858 117.573L270.456 117.219L269.966 119.158ZM271.369 119.512L270.88 121.451C272.434 121.843 274.023 121.983 275.641 121.874L275.506 119.879L275.372 117.883C274.165 117.964 272.997 117.86 271.858 117.573L271.369 119.512ZM275.506 119.879L275.641 121.874L277.112 121.775L276.978 119.779L276.843 117.784L275.372 117.883L275.506 119.879ZM276.978 119.779L277.112 121.775L278.584 121.676L278.45 119.68L278.315 117.685L276.843 117.784L276.978 119.779ZM278.45 119.68L278.584 121.676C279.936 121.585 281.269 121.556 282.582 121.589L282.633 119.59L282.684 117.591C281.243 117.554 279.787 117.586 278.315 117.685L278.45 119.68ZM282.633 119.59L282.582 121.589L284.017 121.626L284.068 119.627L284.119 117.627L282.684 117.591L282.633 119.59ZM284.068 119.627L284.017 121.626L285.452 121.662L285.503 119.663L285.554 117.664L284.119 117.627L284.068 119.627ZM285.503 119.663L285.452 121.662C286.813 121.697 288.171 121.748 289.527 121.814L289.625 119.817L289.723 117.819C288.336 117.751 286.946 117.699 285.554 117.664L285.503 119.663ZM289.625 119.817L289.527 121.814L290.957 121.884L291.055 119.887L291.153 117.889L289.723 117.819L289.625 119.817ZM291.055 119.887L290.957 121.884L292.387 121.955L292.485 119.957L292.583 117.959L291.153 117.889L291.055 119.887ZM292.485 119.957L292.387 121.955C293.73 122.021 295.072 122.115 296.413 122.238L296.596 120.246L296.779 118.255C295.381 118.127 293.983 118.028 292.583 117.959L292.485 119.957ZM296.596 120.246L296.413 122.238L297.841 122.369L298.023 120.377L298.206 118.386L296.779 118.255L296.596 120.246ZM298.023 120.377L297.841 122.369L299.268 122.5L299.45 120.508L299.633 118.517L298.206 118.386L298.023 120.377ZM299.45 120.508L299.268 122.5C300.649 122.627 302.033 122.741 303.418 122.842L303.564 120.848L303.71 118.853C302.349 118.753 300.99 118.641 299.633 118.517L299.45 120.508ZM303.564 120.848L303.418 122.842L304.849 122.947L304.995 120.952L305.141 118.958L303.71 118.853L303.564 120.848ZM304.995 120.952L304.849 122.947L306.28 123.052L306.426 121.057L306.572 119.062L305.141 118.958L304.995 120.952ZM306.426 121.057L306.28 123.052C307.696 123.155 309.113 123.213 310.532 123.225L310.549 121.225L310.566 119.225C309.233 119.214 307.902 119.16 306.572 119.062L306.426 121.057ZM310.549 121.225L310.532 123.225L311.966 123.238L311.983 121.238L312 119.238L310.566 119.225L310.549 121.225ZM311.983 121.238L311.966 123.238L313.4 123.25L313.417 121.25L313.434 119.25L312 119.238L311.983 121.238ZM313.417 121.25L313.4 123.25C314.658 123.26 315.921 123.382 317.19 123.616L317.552 121.649L317.914 119.682C316.422 119.407 314.928 119.262 313.434 119.25L313.417 121.25ZM317.552 121.649L317.19 123.616L318.629 123.88L318.991 121.914L319.354 119.947L317.914 119.682L317.552 121.649ZM318.991 121.914L318.629 123.88L320.069 124.145L320.431 122.178L320.793 120.212L319.354 119.947L318.991 121.914ZM320.431 122.178L320.069 124.145C321.598 124.427 323.131 124.532 324.666 124.458L324.57 122.46L324.474 120.463C323.251 120.521 322.025 120.438 320.793 120.212L320.431 122.178ZM324.57 122.46L324.666 124.458L326.104 124.389L326.008 122.391L325.912 120.394L324.474 120.463L324.57 122.46ZM326.008 122.391L326.104 124.389L327.541 124.32L327.445 122.322L327.349 120.325L325.912 120.394L326.008 122.391ZM327.445 122.322L327.541 124.32C328.975 124.251 330.406 124.122 331.834 123.934L331.572 121.951L331.31 119.969C329.993 120.142 328.672 120.261 327.349 120.325L327.445 122.322ZM331.572 121.951L331.834 123.934L333.264 123.745L333.003 121.763L332.741 119.78L331.31 119.969L331.572 121.951ZM333.003 121.763L333.264 123.745L334.695 123.557L334.433 121.574L334.172 119.591L332.741 119.78L333.003 121.763ZM334.433 121.574L334.695 123.557C335.979 123.387 337.266 123.305 338.557 123.309L338.564 121.309L338.57 119.309C337.099 119.304 335.633 119.398 334.172 119.591L334.433 121.574ZM338.564 121.309L338.557 123.309L339.997 123.313L340.003 121.313L340.009 119.313L338.57 119.309L338.564 121.309ZM340.003 121.313L339.997 123.313L341.436 123.318L341.442 121.318L341.449 119.318L340.009 119.313L340.003 121.313ZM341.442 121.318L341.436 123.318C343.033 123.323 344.608 123.073 346.152 122.575L345.538 120.672L344.924 118.768C343.769 119.141 342.613 119.322 341.449 119.318L341.442 121.318ZM345.538 120.672L346.152 122.575L347.559 122.121L346.945 120.218L346.331 118.314L344.924 118.768L345.538 120.672ZM346.945 120.218L347.559 122.121L348.966 121.667L348.351 119.764L347.737 117.861L346.331 118.314L346.945 120.218ZM348.351 119.764L348.966 121.667C350.043 121.32 351.125 121.215 352.231 121.347L352.468 119.361L352.705 117.375C351.021 117.174 349.359 117.337 347.737 117.861L348.351 119.764ZM352.468 119.361L352.231 121.347L353.685 121.52L353.922 119.534L354.16 117.549L352.705 117.375L352.468 119.361ZM353.922 119.534L353.685 121.52L355.139 121.694L355.377 119.708L355.614 117.722L354.16 117.549L353.922 119.534ZM355.377 119.708L355.139 121.694C356.651 121.875 358.157 121.92 359.656 121.829L359.534 119.832L359.413 117.836C358.158 117.912 356.892 117.875 355.614 117.722L355.377 119.708ZM359.534 119.832L359.656 121.829L361.091 121.742L360.969 119.745L360.848 117.749L359.413 117.836L359.534 119.832ZM360.969 119.745L361.091 121.742L362.526 121.654L362.404 119.658L362.283 117.662L360.848 117.749L360.969 119.745ZM362.404 119.658L362.526 121.654C363.959 121.567 365.386 121.42 366.806 121.212L366.517 119.233L366.227 117.254C364.918 117.445 363.603 117.581 362.283 117.662L362.404 119.658ZM366.517 119.233L366.806 121.212L368.229 121.004L367.939 119.025L367.649 117.046L366.227 117.254L366.517 119.233ZM367.939 119.025L368.229 121.004L369.651 120.795L369.362 118.816L369.072 116.838L367.649 117.046L367.939 119.025ZM369.362 118.816L369.651 120.795C371.078 120.587 372.495 120.311 373.903 119.969L373.43 118.026L372.958 116.082C371.67 116.395 370.375 116.647 369.072 116.838L369.362 118.816ZM373.43 118.026L373.903 119.969L375.307 119.628L374.835 117.684L374.363 115.741L372.958 116.082L373.43 118.026ZM374.835 117.684L375.307 119.628L376.712 119.286L376.24 117.343L375.768 115.399L374.363 115.741L374.835 117.684ZM376.24 117.343L376.712 119.286C377.959 118.983 379.216 118.78 380.485 118.676L380.321 116.682L380.158 114.689C378.68 114.811 377.216 115.047 375.768 115.399L376.24 117.343ZM380.321 116.682L380.485 118.676L381.917 118.558L381.753 116.565L381.589 114.571L380.158 114.689L380.321 116.682ZM381.753 116.565L381.917 118.558L383.349 118.44L383.185 116.447L383.021 114.454L381.589 114.571L381.753 116.565ZM383.185 116.447L383.349 118.44C384.848 118.317 386.327 118.054 387.784 117.65L387.251 115.723L386.717 113.795C385.5 114.132 384.269 114.351 383.021 114.454L383.185 116.447ZM387.251 115.723L387.784 117.65L389.178 117.265L388.645 115.337L388.111 113.41L386.717 113.795L387.251 115.723ZM388.645 115.337L389.178 117.265L390.572 116.879L390.038 114.952L389.505 113.024L388.111 113.41L388.645 115.337ZM390.038 114.952L390.572 116.879C391.75 116.553 392.949 116.376 394.17 116.348L394.124 114.349L394.077 112.349C392.526 112.385 391.001 112.61 389.505 113.024L390.038 114.952ZM394.124 114.349L394.17 116.348L395.616 116.315L395.569 114.315L395.523 112.316L394.077 112.349L394.124 114.349ZM395.569 114.315L395.616 116.315L397.061 116.281L397.014 114.281L396.968 112.282L395.523 112.316L395.569 114.315ZM397.014 114.281L397.061 116.281C398.507 116.247 399.945 116.149 401.374 115.986L401.147 113.999L400.921 112.012C399.612 112.161 398.295 112.251 396.968 112.282L397.014 114.281ZM401.147 113.999L401.374 115.986L402.801 115.823L402.574 113.836L402.347 111.849L400.921 112.012L401.147 113.999ZM402.574 113.836L402.801 115.823L404.228 115.66L404.001 113.673L403.774 111.686L402.347 111.849L402.574 113.836ZM404.001 113.673L404.228 115.66C405.592 115.504 406.957 115.353 408.324 115.207L408.111 113.218L407.898 111.23C406.522 111.377 405.148 111.529 403.774 111.686L404.001 113.673ZM408.111 113.218L408.324 115.207L409.752 115.054L409.54 113.066L409.327 111.077L407.898 111.23L408.111 113.218ZM409.54 113.066L409.752 115.054L411.181 114.901L410.968 112.913L410.756 110.924L409.327 111.077L409.54 113.066ZM410.968 112.913L411.181 114.901C412.663 114.743 414.124 114.462 415.563 114.059L415.025 112.133L414.486 110.207C413.259 110.55 412.016 110.789 410.756 110.924L410.968 112.913ZM415.025 112.133L415.563 114.059L416.953 113.671L416.414 111.745L415.876 109.819L414.486 110.207L415.025 112.133ZM416.414 111.745L416.953 113.671L418.343 113.282L417.804 111.356L417.266 109.43L415.876 109.819L416.414 111.745ZM417.804 111.356L418.343 113.282C419.615 112.927 420.899 112.633 422.194 112.401L421.842 110.432L421.489 108.464C420.068 108.718 418.66 109.04 417.266 109.43L417.804 111.356ZM421.842 110.432L422.194 112.401L423.61 112.148L423.258 110.179L422.905 108.21L421.489 108.464L421.842 110.432ZM423.258 110.179L423.61 112.148L425.026 111.894L424.674 109.926L424.321 107.957L422.905 108.21L423.258 110.179ZM424.674 109.926L425.026 111.894C426.351 111.657 427.682 111.453 429.018 111.283L428.766 109.299L428.513 107.315C427.11 107.494 425.713 107.708 424.321 107.957L424.674 109.926ZM428.766 109.299L429.018 111.283L430.446 111.102L430.194 109.118L429.941 107.134L428.513 107.315L428.766 109.299ZM430.194 109.118L430.446 111.102L431.874 110.92L431.621 108.936L431.369 106.952L429.941 107.134L430.194 109.118ZM431.621 108.936L431.874 110.92C433.29 110.74 434.695 110.511 436.087 110.232L435.696 108.271L435.304 106.31C434.004 106.569 432.692 106.784 431.369 106.952L431.621 108.936ZM435.696 108.271L436.087 110.232L437.491 109.952L437.099 107.991L436.707 106.029L435.304 106.31L435.696 108.271ZM437.099 107.991L437.491 109.952L438.894 109.672L438.502 107.71L438.111 105.749L436.707 106.029L437.099 107.991ZM438.502 107.71L438.894 109.672C440.391 109.372 441.852 108.903 443.275 108.266L442.458 106.441L441.641 104.615C440.483 105.133 439.306 105.51 438.111 105.749L438.502 107.71ZM442.458 106.441L443.275 108.266L444.62 107.664L443.803 105.839L442.986 104.013L441.641 104.615L442.458 106.441ZM443.803 105.839L444.62 107.664L445.965 107.062L445.148 105.237L444.331 103.411L442.986 104.013L443.803 105.839ZM445.148 105.237L445.965 107.062C447.11 106.55 448.275 106.191 449.464 105.982L449.116 104.012L448.768 102.043C447.248 102.311 445.768 102.769 444.331 103.411L445.148 105.237ZM449.116 104.012L449.464 105.982L450.876 105.733L450.528 103.763L450.181 101.793L448.768 102.043L449.116 104.012ZM450.528 103.763L450.876 105.733L452.288 105.483L451.94 103.514L451.593 101.544L450.181 101.793L450.528 103.763ZM451.94 103.514L452.288 105.483C453.547 105.261 454.83 105.129 456.138 105.087L456.074 103.088L456.01 101.089C454.515 101.137 453.043 101.288 451.593 101.544L451.94 103.514ZM456.074 103.088L456.138 105.087L457.598 105.04L457.534 103.041L457.47 101.042L456.01 101.089L456.074 103.088ZM457.534 103.041L457.598 105.04L459.059 104.994L458.995 102.995L458.931 100.996L457.47 101.042L457.534 103.041ZM458.995 102.995L459.059 104.994C460.572 104.945 462.062 104.77 463.525 104.467L463.12 102.508L462.714 100.55C461.48 100.806 460.219 100.954 458.931 100.996L458.995 102.995ZM463.12 102.508L463.525 104.467L464.932 104.176L464.526 102.217L464.121 100.259L462.714 100.55L463.12 102.508ZM464.526 102.217L464.932 104.176L466.338 103.884L465.932 101.926L465.527 99.9674L464.121 100.259L464.526 102.217ZM465.932 101.926L466.338 103.884C467.694 103.603 469.046 103.316 470.393 103.021L469.966 101.067L469.539 99.1134C468.206 99.4048 466.869 99.6895 465.527 99.9674L465.932 101.926ZM469.966 101.067L470.393 103.021L471.79 102.716L471.363 100.762L470.936 98.8079L469.539 99.1134L469.966 101.067ZM471.363 100.762L471.79 102.716L473.187 102.41L472.76 100.456L472.333 98.5025L470.936 98.8079L471.363 100.762ZM472.76 100.456L473.187 102.41C474.547 102.113 475.909 101.793 477.271 101.451L476.785 99.5114L476.298 97.5715C474.975 97.9035 473.653 98.2138 472.333 98.5025L472.76 100.456ZM476.785 99.5114L477.271 101.451L478.671 101.1L478.184 99.1603L477.698 97.2204L476.298 97.5715L476.785 99.5114ZM478.184 99.1603L478.671 101.1L480.071 100.749L479.584 98.8091L479.097 96.8692L477.698 97.2204L478.184 99.1603ZM479.584 98.8091L480.071 100.749C481.46 100.4 482.835 100.002 484.194 99.5551L483.569 97.6553L482.944 95.7555C481.676 96.1728 480.394 96.544 479.097 96.8692L479.584 98.8091ZM483.569 97.6553L484.194 99.5551L485.564 99.1044L484.938 97.2047L484.313 95.3049L482.944 95.7555L483.569 97.6553ZM484.938 97.2047L485.564 99.1044L486.933 98.6538L486.308 96.754L485.683 94.8543L484.313 95.3049L484.938 97.2047ZM486.308 96.754L486.933 98.6538C488.388 98.1748 489.784 97.5362 491.119 96.7409L490.095 95.0229L489.071 93.3049C487.983 93.9531 486.854 94.4686 485.683 94.8543L486.308 96.754ZM490.095 95.0229L491.119 96.7409L492.381 95.9886L491.357 94.2706L490.333 92.5525L489.071 93.3049L490.095 95.0229ZM491.357 94.2706L492.381 95.9886L493.644 95.2363L492.62 93.5182L491.596 91.8002L490.333 92.5525L491.357 94.2706ZM492.62 93.5182L493.644 95.2363C494.747 94.5789 495.882 94.0423 497.051 93.6239L496.377 91.7409L495.703 89.8579C494.284 90.3657 492.915 91.014 491.596 91.8002L492.62 93.5182ZM496.377 91.7409L497.051 93.6239L498.399 93.1411L497.725 91.2582L497.051 89.3752L495.703 89.8579L496.377 91.7409ZM497.725 91.2582L498.399 93.1411L499.748 92.6584L499.074 90.7754L498.4 88.8925L497.051 89.3752L497.725 91.2582ZM499.074 90.7754L499.748 92.6584C501.09 92.1778 502.412 91.6457 503.714 91.0621L502.895 89.2372L502.077 87.4122C500.87 87.9534 499.644 88.4468 498.4 88.8925L499.074 90.7754ZM502.895 89.2372L503.714 91.0621L505.021 90.4759L504.203 88.6509L503.384 86.826L502.077 87.4122L502.895 89.2372ZM504.203 88.6509L505.021 90.4759L506.328 89.8896L505.51 88.0647L504.692 86.2398L503.384 86.826L504.203 88.6509ZM505.51 88.0647L506.328 89.8896C507.5 89.3642 508.706 88.9184 509.946 88.5523L509.38 86.6342L508.814 84.716C507.403 85.1325 506.028 85.6405 504.692 86.2398L505.51 88.0647ZM509.38 86.6342L509.946 88.5523L511.328 88.1444L510.762 86.2263L510.196 84.3081L508.814 84.716L509.38 86.6342ZM510.762 86.2263L511.328 88.1444L512.71 87.7365L512.144 85.8184L511.577 83.9002L510.196 84.3081L510.762 86.2263ZM512.144 85.8184L512.71 87.7365C514.197 87.2976 515.608 86.6792 516.941 85.8831L515.916 84.1661L514.89 82.449C513.845 83.0734 512.742 83.5565 511.577 83.9002L512.144 85.8184ZM515.916 84.1661L516.941 85.8831L518.181 85.1428L517.155 83.4257L516.13 81.7087L514.89 82.449L515.916 84.1661ZM517.155 83.4257L518.181 85.1428L519.42 84.4024L518.395 82.6854L517.369 80.9684L516.13 81.7087L517.155 83.4257ZM518.395 82.6854L519.42 84.4024C520.365 83.8381 521.412 83.4755 522.583 83.3221L522.324 81.3391L522.064 79.356C520.374 79.5773 518.802 80.1123 517.369 80.9684L518.395 82.6854ZM522.324 81.3391L522.583 83.3221L524.074 83.1268L523.814 81.1438L523.555 79.1607L522.064 79.356L522.324 81.3391ZM523.814 81.1438L524.074 83.1268L525.565 82.9315L525.305 80.9485L525.045 78.9654L523.555 79.1607L523.814 81.1438ZM525.305 80.9485L525.565 82.9315C527.223 82.7143 528.78 82.2245 530.22 81.4549L529.278 79.691L528.335 77.9271C527.339 78.4595 526.247 78.808 525.045 78.9654L525.305 80.9485ZM529.278 79.691L530.22 81.4549L531.49 80.7764L530.547 79.0125L529.605 77.2485L528.335 77.9271L529.278 79.691ZM530.547 79.0125L531.49 80.7764L532.76 80.0978L531.817 78.3339L530.874 76.57L529.605 77.2485L530.547 79.0125ZM531.817 78.3339L532.76 80.0978C533.968 79.4521 535.181 78.8167 536.399 78.1916L535.486 76.4123L534.573 74.6329C533.335 75.2681 532.102 75.9138 530.874 76.57L531.817 78.3339ZM535.486 76.4123L536.399 78.1916L537.679 77.5348L536.766 75.7554L535.852 73.9761L534.573 74.6329L535.486 76.4123ZM536.766 75.7554L537.679 77.5348L538.959 76.8779L538.045 75.0986L537.132 73.3193L535.852 73.9761L536.766 75.7554ZM538.045 75.0986L538.959 76.8779C540.315 76.1817 541.591 75.3423 542.784 74.3624L541.515 72.8167L540.246 71.2711C539.269 72.0734 538.231 72.7553 537.132 73.3193L538.045 75.0986ZM541.515 72.8167L542.784 74.3624L543.915 73.4335L542.646 71.8878L541.377 70.3422L540.246 71.2711L541.515 72.8167ZM542.646 71.8878L543.915 73.4335L545.047 72.5046L543.777 70.9589L542.508 69.4133L541.377 70.3422L542.646 71.8878ZM543.777 70.9589L545.047 72.5046C546.032 71.6954 547.072 71 548.167 70.4159L547.226 68.6512L546.285 66.8864C544.952 67.5971 543.693 68.4402 542.508 69.4133L543.777 70.9589ZM547.226 68.6512L548.167 70.4159L549.433 69.7411L548.491 67.9764L547.55 66.2116L546.285 66.8864L547.226 68.6512ZM548.491 67.9764L549.433 69.7411L550.698 69.0663L549.757 67.3016L548.816 65.5368L547.55 66.2116L548.491 67.9764ZM549.757 67.3016L550.698 69.0663C551.907 68.4218 553.119 67.7825 554.334 67.1484L553.409 65.3751L552.484 63.6019C551.258 64.2416 550.035 64.8866 548.816 65.5368L549.757 67.3016ZM553.409 65.3751L554.334 67.1484L555.607 66.4844L554.682 64.7112L553.757 62.9379L552.484 63.6019L553.409 65.3751ZM554.682 64.7112L555.607 66.4844L556.88 65.8205L555.955 64.0473L555.03 62.274L553.757 62.9379L554.682 64.7112ZM555.955 64.0473L556.88 65.8205C558.048 65.2115 559.248 64.6526 560.481 64.1439L559.718 62.2951L558.955 60.4462C557.613 60.9999 556.305 61.6092 555.03 62.274L555.955 64.0473ZM559.718 62.2951L560.481 64.1439L561.823 63.5902L561.06 61.7413L560.298 59.8925L558.955 60.4462L559.718 62.2951ZM561.06 61.7413L561.823 63.5902L563.165 63.0365L562.403 61.1876L561.64 59.3388L560.298 59.8925L561.06 61.7413ZM562.403 61.1876L563.165 63.0365C564.615 62.4384 565.961 61.6626 567.2 60.7106L565.981 59.1248L564.763 57.5391C563.805 58.275 562.766 58.8744 561.64 59.3388L562.403 61.1876ZM565.981 59.1248L567.2 60.7106L568.345 59.8309L567.126 58.2451L565.907 56.6593L564.763 57.5391L565.981 59.1248ZM567.126 58.2451L568.345 59.8309L569.489 58.9511L568.271 57.3654L567.052 55.7796L565.907 56.6593L567.126 58.2451ZM568.271 57.3654L569.489 58.9511C570.486 58.1851 571.548 57.52 572.677 56.9549L571.782 55.1664L570.887 53.378C569.53 54.0569 568.251 54.8577 567.052 55.7796L568.271 57.3654ZM571.782 55.1664L572.677 56.9549L573.972 56.3065L573.077 54.5181L572.182 52.7296L570.887 53.378L571.782 55.1664ZM573.077 54.5181L573.972 56.3065L575.267 55.6582L574.372 53.8697L573.477 52.0813L572.182 52.7296L573.077 54.5181ZM574.372 53.8697L575.267 55.6582C576.673 54.9547 577.96 54.0734 579.123 53.0173L577.779 51.5364L576.434 50.0556C575.541 50.8665 574.557 51.5408 573.477 52.0813L574.372 53.8697ZM577.779 51.5364L579.123 53.0173L580.195 52.0442L578.851 50.5633L577.507 49.0824L576.434 50.0556L577.779 51.5364ZM578.851 50.5633L580.195 52.0442L581.267 51.0711L579.923 49.5902L578.579 48.1093L577.507 49.0824L578.851 50.5633ZM579.923 49.5902L581.267 51.0711C582.293 50.1395 582.986 49.5502 583.383 49.2538L582.185 47.652L580.987 46.0502C580.424 46.471 579.609 47.1739 578.579 48.1093L579.923 49.5902ZM582.185 47.652L583.383 49.2538L583.882 48.88L582.685 47.2782L581.487 45.6764L580.987 46.0502L582.185 47.652ZM582.685 47.2782L583.886 48.8769L585.024 48.0222L583.822 46.4234L582.62 44.8247L581.483 45.6795L582.685 47.2782ZM583.822 46.4234L584.961 48.0674L585.043 48.0105L583.904 46.3665L582.765 44.7225L582.683 44.7794L583.822 46.4234Z" fill="#AD2E24" fill-opacity="0.25"/>
</svg>
