<svg width="41" height="41" viewBox="0 0 41 41" fill="none" xmlns="http://www.w3.org/2000/svg">
<path d="M36.2565 13.716L24.2037 18.4143L36.3707 30.6057L30.7184 36.3752L18.4879 24.1799L13.6256 36.217L2.37073 2.37521L36.2565 13.716Z" fill="white"/>
<path d="M36.2565 13.716L36.8013 15.1136L40.662 13.6087L36.7325 12.2936L36.2565 13.716ZM24.2037 18.4143L23.659 17.0167L21.5213 17.85L23.142 19.4739L24.2037 18.4143ZM36.3707 30.6057L37.4422 31.6554L38.4802 30.5959L37.4324 29.5461L36.3707 30.6057ZM30.7184 36.3752L29.6593 37.4374L30.7308 38.5059L31.7899 37.4249L30.7184 36.3752ZM18.4879 24.1799L19.547 23.1177L17.9446 21.5199L17.0971 23.6181L18.4879 24.1799ZM13.6256 36.217L12.2023 36.6904L13.4891 40.5598L15.0164 36.7788L13.6256 36.217ZM2.37073 2.37521L2.84679 0.952764L1.95503e-05 1.14441e-05L0.947378 2.84858L2.37073 2.37521ZM36.2565 13.716L35.7117 12.3185L23.659 17.0167L24.2037 18.4143L24.7485 19.8118L36.8013 15.1136L36.2565 13.716ZM24.2037 18.4143L23.142 19.4739L35.309 31.6653L36.3707 30.6057L37.4324 29.5461L25.2655 17.3547L24.2037 18.4143ZM36.3707 30.6057L35.2992 29.556L29.6469 35.3255L30.7184 36.3752L31.7899 37.4249L37.4422 31.6554L36.3707 30.6057ZM30.7184 36.3752L31.7775 35.313L19.547 23.1177L18.4879 24.1799L17.4288 25.2421L29.6593 37.4374L30.7184 36.3752ZM18.4879 24.1799L17.0971 23.6181L12.2348 35.6552L13.6256 36.217L15.0164 36.7788L19.8787 24.7417L18.4879 24.1799ZM13.6256 36.217L15.049 35.7436L3.79408 1.90185L2.37073 2.37521L0.947378 2.84858L12.2023 36.6904L13.6256 36.217ZM2.37073 2.37521L1.89466 3.79766L35.7804 15.1385L36.2565 13.716L36.7325 12.2936L2.84679 0.952764L2.37073 2.37521Z" fill="#2A2626"/>
</svg>
