<svg width="147" height="190" viewBox="0 0 147 190" fill="none" xmlns="http://www.w3.org/2000/svg">
<g filter="url(#filter0_d_91_43)">
<path d="M106.572 181.717L4.00004 158.403L32.9695 30.9451L68.3455 6.44187L142.575 23.3133L106.572 181.717Z" fill="#EBEBEB"/>
</g>
<path d="M51.3131 53C54.4002 61.0908 57.434 63.6795 60.4145 60.7661C63.3949 57.8527 65.6592 58.4077 67.2073 62.4309C68.7554 66.4542 70.755 68.2913 73.2059 67.9423C75.6568 67.5933 78.0798 67.3796 80.4749 67.3013C82.8699 67.2229 85.1366 67.7664 87.2748 68.9317C89.4131 70.0971 91.7683 70.2118 94.3404 69.2758C96.9125 68.3399 99.3673 67.9722 101.705 68.1726C104.042 68.3731 106.09 69.9793 107.846 72.9911C109.603 76.003 110.53 77.2779 110.625 76.8158" stroke="black" stroke-opacity="0.2"/>
<path d="M52.9181 42.372C57.5226 44.033 60.8923 45.6091 63.0274 47.1002C65.1625 48.5912 67.3738 49.7808 69.6615 50.6688C71.9492 51.5568 74.3653 51.9375 76.9097 51.8109C79.4542 51.6842 82.0054 51.5308 84.5634 51.3506C87.1214 51.1705 89.2989 52.4936 91.0961 55.3201C92.8932 58.1465 95.2523 58.7523 98.1734 57.1373C101.095 55.5223 103.668 55.2816 105.893 56.4151C108.119 57.5486 110.275 58.9581 112.361 60.6436C114.446 62.3291 115.665 62.478 116.016 61.0903" stroke="black" stroke-opacity="0.2"/>
<path d="M45.9785 88.7113C49.5166 83.9643 51.586 83.4546 52.1869 87.1821C52.7877 90.9096 53.8005 92.4859 55.2251 91.9111C56.6497 91.3363 57.9329 91.5001 59.0747 92.4026C60.2164 93.3051 61.4161 93.9053 62.6736 94.2033C63.9311 94.5013 65.2613 94.4198 66.6641 93.9589C68.0669 93.498 69.3865 93.4715 70.623 93.8794C71.8595 94.2873 72.9101 95.6655 73.7751 98.0138C74.64 100.362 76.0059 100.094 77.8728 97.2091C79.7398 94.3243 80.4651 93.969 80.0488 96.1432" stroke="black" stroke-opacity="0.2"/>
<path d="M37.0001 105.787C42.1171 104.488 45.763 104.215 47.9379 104.968C50.1127 105.72 52.4485 105.884 54.9452 105.461C57.4419 105.037 59.7003 105.484 61.7204 106.802C63.7405 108.12 65.7575 109.448 67.7716 110.788C69.7856 112.128 71.8766 113.186 74.0448 113.963C76.2129 114.74 78.6331 114.596 81.3052 113.532C83.9774 112.467 86.0703 113.519 87.5839 116.687C89.0975 119.855 91.1071 121.21 93.6127 120.754C96.1184 120.298 97.2011 120.691 96.8609 121.934" stroke="black" stroke-opacity="0.2"/>
<path d="M93.0536 133.02C87.8738 134.04 84.2185 134.116 82.0875 133.247C79.9564 132.378 77.6329 132.088 75.117 132.376C72.601 132.664 70.37 132.096 68.4241 130.671C66.4781 129.246 64.5357 127.811 62.597 126.364C60.6583 124.917 58.6274 123.748 56.5044 122.855C54.3814 121.962 51.957 121.975 49.2312 122.894C46.5055 123.812 44.4724 122.649 43.1321 119.404C41.7918 116.159 39.8583 114.697 37.3317 115.017C34.8051 115.337 33.7452 114.886 34.152 113.663" stroke="black" stroke-opacity="0.2"/>
<defs>
<filter id="filter0_d_91_43" x="0" y="6.44186" width="146.575" height="183.275" filterUnits="userSpaceOnUse" color-interpolation-filters="sRGB">
<feFlood flood-opacity="0" result="BackgroundImageFix"/>
<feColorMatrix in="SourceAlpha" type="matrix" values="0 0 0 0 0 0 0 0 0 0 0 0 0 0 0 0 0 0 127 0" result="hardAlpha"/>
<feOffset dy="4"/>
<feGaussianBlur stdDeviation="2"/>
<feComposite in2="hardAlpha" operator="out"/>
<feColorMatrix type="matrix" values="0 0 0 0 0 0 0 0 0 0 0 0 0 0 0 0 0 0 0.25 0"/>
<feBlend mode="normal" in2="BackgroundImageFix" result="effect1_dropShadow_91_43"/>
<feBlend mode="normal" in="SourceGraphic" in2="effect1_dropShadow_91_43" result="shape"/>
</filter>
</defs>
</svg>
